<svg xmlns="http://www.w3.org/2000/svg" viewBox="0 0 32 32" width="32" height="32">
  <defs>
    <linearGradient id="amber" x1="4" y1="4" x2="28" y2="28" gradientUnits="userSpaceOnUse">
      <stop offset="0" stop-color="#FBBF24"/>
      <stop offset="0.5" stop-color="#F59E0B"/>
      <stop offset="1" stop-color="#D97706"/>
    </linearGradient>
  </defs>
  <rect width="32" height="32" rx="6" fill="#080810"/>
  <path fill="url(#amber)" fill-rule="evenodd" d="M25.33 24.19H6.67V13.52Q6.67 12.06 7.24 10.87 7.81 9.69 8.85 9.01 9.88 8.33 11.27 8.33 12.95 8.33 14.04 9.21 15.13 10.1 15.54 11.4H15.65Q15.97 9.88 17.14 8.85 18.31 7.81 20.22 7.81 21.93 7.81 23.06 8.57 24.19 9.34 24.76 10.63 25.33 11.92 25.33 13.5ZM14.2 20.13V14.75Q14.2 13.69 13.61 13.09 13.01 12.49 12.06 12.49 11 12.49 10.45 13.08 9.91 13.66 9.91 14.61V20.13ZM22.01 20.13V14.29Q22.01 13.31 21.44 12.65 20.87 12 19.67 12 18.64 12 18 12.63 17.36 13.25 17.36 14.48V20.13Z"/>
  <rect x="12" y="14.08" width="1.6" height="3.7" rx="1.07" fill="rgba(52, 211, 153, 0.75)"/>
  <rect x="20" y="14.08" width="1.6" height="3.7" rx="1.07" fill="rgba(52, 211, 153, 0.75)"/>
</svg>
