<svg viewBox="0 0 220 220" xmlns="http://www.w3.org/2000/svg"><rect width="220" height="220" fill="#231F20"/><g fill="#FEFEFE" stroke="#FEFEFE"><path d="M93.9583 29.7917H94.4166V30.25H94.5312H96.5937C96.7083 30.2118 96.7464 30.25 96.7083 30.3646V61.3021V61.4167H96.8228H126.385C126.5 61.3785 126.538 61.4167 126.5 61.5313V64.0521V64.1667H126.385H94.0728H93.9583V64.0521V29.9063V29.7917Z"/><path d="M45.8333 30.25H45.9478H49.8437H49.9583V30.7083H50.4166V31.625H50.8749V32.5417H51.3333V33.4583H51.7916V34.375H52.2499V35.2917H52.7083V36.2083H53.1666V37.125H53.6249V38.0417H54.0833V38.9583H54.5416V39.875H54.9999V40.7917H55.4583V41.7083H55.9166V42.625H56.3749V43.5417H56.8333V44.4583H57.2916V45.375H57.7499V46.2917H58.2083V47.2083H58.6666V48.125H59.1249V49.0417H59.5833V49.9583H60.0416V50.875H60.4999V51.7917H60.9583V52.7083H61.4166V53.625H61.8749V54.5417H62.3333V55.4583H62.7916V56.375H63.2499V57.2917H63.7083V58.2083H64.1666V59.125H64.6249V60.0417H65.0833V60.9583H65.5416V61.875H65.9999V62.7917H66.4583V63.7083H66.9166V64.1667H66.802H63.8228H63.7083V63.7083H63.2499V62.7917H62.7916V61.875H62.3333V60.9583H61.8749V60.0417H61.4166V59.125H60.9583V58.2083H60.4999V57.2917H60.0416V56.375H59.5833V55.4583H59.1249V54.5417H58.6666V53.625H58.552H37.6978H37.5833V54.0833H37.1249V55H36.6666V55.1146V56.2604V56.375H36.2083V57.2917H35.7499V58.2083H35.2916V59.125H34.8333V60.0417H34.3749V60.9583H33.9166C33.9166 61.0729 33.9166 61.3403 33.9166 61.7604V61.875H33.4583V62.7917H32.9999V63.7083H32.5416V64.1667H32.427H29.4478H29.3333V63.7083H29.7916V62.7917H30.2499V61.875H30.7083V60.9583H31.1666V60.0417H31.6249V59.125H32.0833V58.2083H32.5416V58.0938V56.9479V56.8333H32.9999V55.9167H33.4583V55H33.9166V54.0833H34.3749V53.1667H34.8333C34.8333 53.0521 34.8333 52.7847 34.8333 52.3646V52.25H35.2916V51.3333H35.7499V50.875H36.2083V49.9583H36.6666V49.0417H37.1249V48.125H37.5833V47.2083H38.0416V46.2917H38.4999V45.375H38.9583V44.4583H39.4166V44.3438V43.1979V43.0833H39.8749V42.1667H40.3333V41.25H40.7916V40.3333H41.2499V39.4167H41.7083C41.7083 39.3021 41.7083 39.0347 41.7083 38.6146V38.5H42.1666V37.5833H42.6249V37.125H43.0833V36.2083H43.5416V35.2917H43.9999V34.375H44.4583V33.4583H44.9166V32.5417H45.3749V31.625H45.8333V31.5104V30.3646V30.25ZM47.6666 33.4583V34.375H47.2083V34.6042C47.2083 34.9097 47.2083 35.1389 47.2083 35.2917H46.7499V36.2083H46.2916V37.125H45.8333V38.0417H45.3749V38.5H44.9166V39.4167H44.4583V39.6458C44.4583 39.9514 44.4583 40.1806 44.4583 40.3333H43.9999V41.25H43.5416V41.4792V42.625H43.0833V43.5417H42.6249V44.4583H42.1666V45.375H41.7083V46.2917H41.2499V47.2083H40.7916V48.125H40.3333V49.0417H39.8749V49.9583H39.4166C39.4166 50.1111 39.4166 50.4167 39.4166 50.875C39.4166 50.875 39.493 50.875 39.6458 50.875H56.8333V49.9583H56.3749V49.0417H55.9166V48.125H55.4583V47.6667H54.9999V46.5208V46.2917H54.5416V45.375H54.0833V44.4583H53.6249V43.5417H53.1666V42.625H52.7083V41.7083H52.2499V40.7917H51.7916V39.875H51.3333V38.9583H50.8749V38.0417H50.4166V37.125H49.9583V36.2083H49.4999V35.2917H49.0416V34.375H48.5833V33.9167H48.1249V33.4583H47.6666Z"/><path d="M156.292 30.25H156.406H159.385C159.5 30.2118 159.538 30.25 159.5 30.3646V61.3021V61.4166H159.615H189.177C189.292 61.3785 189.33 61.4166 189.292 61.5312V64.0521V64.1666H189.177H156.406H156.292V64.0521V30.3646V30.25Z"/><path d="M108.167 92.125H108.281H111.26H111.375V92.5833H111.49H114.469H114.583V93.0417H114.698H115.844H115.958V93.5H116.073H117.219H117.333V93.9583C117.448 93.9583 117.715 93.9583 118.135 93.9583H118.25V94.4167H119.167V94.875H119.625V95.3333H120.542V95.7917H121V96.25H121.458V96.7083H121.917V97.1667H122.833V98.0833H123.292V98.5417H123.75V99H124.208V99.4583H124.667V100.375H125.125V101.292H125.583V102.208H126.042V103.125H126.5V103.24V104.385V104.5H126.958V104.615V105.76V105.875H127.417V105.99V108.969V109.083H127.875V109.198V110.802V110.917H127.417V111.031V114.01V114.125H126.958V114.24V115.844V115.958H126.5V116.875H126.042V117.792H125.583V118.708H125.125C125.125 118.823 125.125 119.09 125.125 119.51V119.625H124.667V120.542H124.208V121.458H124.667V121.917H125.125V122.833H125.583V123.292H126.042V124.208H126.5V124.667H126.958V125.583H127.417V126.042H127.875V126.5H126.958V126.042H126.5V125.583C126.385 125.583 126.118 125.583 125.698 125.583H125.583V125.125H124.667V124.667H124.208V124.208H123.292V123.75H122.833V123.292H122.719H121.573H121.458V123.75H121V124.208H120.083V124.667H119.625V125.125H118.708V125.583H117.792V126.042H116.875V126.5H116.76H115.615H115.5V126.958H115.385H114.24H114.125V127.417H114.01H111.031H110.917V127.875H110.802H109.198H109.083V127.417H108.969H105.99H105.875V126.958H105.76H104.615H104.5V126.5H104.385H103.24H103.125V126.042H102.208V125.583H101.292V125.125C101.177 125.125 100.91 125.125 100.49 125.125H100.375V124.667H99.4583V124.208H99V123.75H98.5417V123.292H98.0833V122.833H97.1667V121.917H96.7083V121.458H96.25V121H95.7917V120.542H95.3333V119.625H94.875V119.167H94.4167V118.25H93.9583V117.333H93.5V117.219V116.073V115.958H93.0417V115.844V114.698V114.583H92.5833V114.469V111.49V111.375H92.125V111.26V108.281V108.167H92.5833V108.052V105.531V105.417H93.0417V105.302V104.156V104.042H93.5V103.927V102.781V102.667H93.9583V101.75H94.4167C94.4167 101.635 94.4167 101.368 94.4167 100.948V100.833H94.875V99.9167H95.3333V99.4583H95.7917V99H96.25V98.5417H96.7083V97.625H97.1667V97.1667H97.625V96.7083H98.5417V96.25H99V95.7917H99.4583V95.3333H99.9167V94.875H100.833V94.4167H101.75V93.9583H102.667V93.5H102.781H103.927H104.042V93.0417H104.156H105.302H105.417V92.5833H105.531H108.052H108.167V92.125ZM109.083 94.875V95.3333H106.563H106.333V95.7917H105.188H104.958V96.25H103.813H103.583V96.7083H103.125V97.1667H102.208V97.625C101.75 97.625 101.444 97.625 101.292 97.625V98.0833H100.833V98.5417H100.375V99H99.4583V99.4583H99V100.375H98.5417V100.833H98.0833V101.292H97.625V102.208H97.1667V102.438C97.1667 102.743 97.1667 102.972 97.1667 103.125H96.7083V103.583H96.25V103.813V104.958H95.7917V105.188V106.333H95.3333V106.563V109.083H94.875V109.313V110.917H95.3333V111.146V113.667H95.7917V113.896V115.042H96.25V115.958H96.7083V116.875H97.1667V117.792H97.625V118.708H98.0833V119.167H98.5417V119.625H99V120.542H99.4583V121H100.375V121.458H100.833V121.917H101.292V122.375H102.208V122.833H102.438C102.743 122.833 102.972 122.833 103.125 122.833V123.292H104.042V123.75H104.958V124.208H105.188H106.333V124.667H106.563H113.208V124.208H113.438H114.583V123.75H114.813H115.958V123.292H116.875V122.833H117.792V122.375H118.708V121.917H119.167V121.458H119.625V121H120.083V120.542H120.542V120.083H121V119.625H121.458V119.167H121.917V118.708H122.375V117.792H122.833C122.833 117.333 122.833 117.028 122.833 116.875H123.292V115.958H123.75V114.813V114.583H124.208V113.438V113.208H124.667V106.563V106.333H124.208V105.188V104.958H123.75V104.042H123.292V103.125H122.833V102.208H122.375V101.292H121.917V100.833H121.458V100.375H121V99.4583H120.542V99H119.625V98.5417H119.167V98.0833H118.708V97.625H117.792V97.1667H116.875V96.7083C116.417 96.7083 116.111 96.7083 115.958 96.7083V96.25H115.042V95.7917H113.896H113.667V95.3333H111.146H110.917V94.875H109.313H109.083Z"/><path d="M36.2084 93.0417H36.323H63.5938C63.7084 93.0035 63.7466 93.0417 63.7084 93.1563V95.6771V95.7917H63.5938H37.2397H37.1251V96.25H36.2084V96.7083H35.7501V97.1667H35.2917V97.625H34.8334V98.5417H34.3751V98.6563V99.8021V99.9167H33.9167V100.031V103.927V104.042H34.3751V104.156V105.76V105.875H34.8334V106.792H35.2917V107.25H35.7501V107.708H36.6667V108.167H36.7813H38.3855H38.5001V108.625H38.6147H59.9272H60.0417V109.083C60.1563 109.083 60.4237 109.083 60.8438 109.083H60.9584V109.542H61.8751V110H62.3334V110.458H62.7917V110.917H63.2501V111.833H63.7084V112.75H64.1667V113.667H64.6251V113.781V115.385V115.5H65.0834V115.615V119.969V120.083H64.6251V120.198V121.802V121.917H64.1667V122.031V123.177V123.292H63.7084V123.75H63.2501V124.667H62.7917V125.125H62.3334V125.583H61.4167V126.042H60.5001V126.5H60.3855H59.2397H59.1251V126.958H59.0105H32.6563H32.5417V126.844V124.323C32.5036 124.208 32.5417 124.17 32.6563 124.208H58.5522H58.6667V123.75H59.5834V123.292H60.5001V122.833H60.9584V121.917H61.4167V121H61.8751V120.885V119.74V119.625H62.3334V119.51V116.531V116.417H61.8751V116.302V114.698V114.583H61.4167V113.667H60.9584V112.75H60.5001V112.292H59.5834V111.833H59.4688H58.323H58.2084V111.375H58.0938H36.323H36.2084V110.917C36.0938 110.917 35.8265 110.917 35.4063 110.917H35.2917V110.458H34.3751V110H33.9167V109.542H33.4584V109.083H33.0001V108.625H32.5417V107.708H32.0834V106.792H31.6251V106.677V105.073V104.958H31.1667V104.844V99.1146V99H31.6251V98.8854V97.7396V97.625H32.0834V97.5104V96.3646V96.25H32.5417V95.7917H33.0001V95.3333H33.4584V94.875H33.9167V94.4167H34.3751V93.9583H35.2917V93.5H36.2084V93.0417Z"/><path d="M156.75 94.4167H156.865H159.385C159.5 94.3785 159.538 94.4167 159.5 94.5313V114.927V115.042H159.958V115.156V116.76V116.875H160.417V116.99V118.135V118.25H160.875V118.708H161.333V119.625H161.792V120.083H162.25V120.542H163.167V121H163.625V121.458H164.542V121.917H165.458V122.375H166.375V122.833H166.49H167.635H167.75V123.292H167.865H169.01H169.125V123.75H169.24H171.302H171.417V124.208H171.531H175.885H176V123.75H176.115H178.177H178.292V123.292H178.406H180.01H180.125V122.833H180.24H181.385H181.5V122.375C181.615 122.375 181.882 122.375 182.302 122.375H182.417V121.917H183.333V121.458H183.792V121H184.708V120.542H185.167V120.083H185.625V119.167H186.083V118.708H186.542V118.25H187V118.135V116.99V116.875H187.458V116.76V115.615V115.5H187.917V115.385V94.5313C187.879 94.4167 187.917 94.3785 188.031 94.4167H190.552H190.667V94.5313V116.302V116.417H190.208V116.531V117.677V117.792H189.75V117.906V119.052V119.167H189.292V119.625H188.833V120.542H188.375V121H187.917V121.917H187.458V122.375H187V122.833H186.083V123.292H185.625V123.75H185.167V124.208H184.25V124.667H183.333V125.125H182.417V125.583H182.302H181.156H181.042V126.042H180.927H179.323H179.208V126.5H179.094H177.031H176.917V126.958H176.802H170.615H170.5V126.5H170.385H168.323H168.208V126.042H168.094H166.49H166.375V125.583H166.26H165.115H165V125.125C164.885 125.125 164.618 125.125 164.198 125.125H164.083V124.667H163.167V124.208H162.708V123.75H161.792V123.292H161.333V122.833H160.875V122.375H160.417V121.917H159.958V121.458H159.5V121H159.042V120.542H158.583V120.083H158.125V119.167H157.667V118.25H157.208V118.135V116.99V116.875H156.75V116.76V113.781V113.667H156.292V113.552V94.9896V94.875H156.75V94.4167Z"/><path d="M46.2916 155.833H46.4062H49.8437H49.9583V156.292H50.4166V156.406V157.552V157.667H50.8749V158.583H51.3333C51.3333 158.698 51.3333 158.965 51.3333 159.385V159.5H51.7916V160.417H52.2499V160.875H52.7083V161.792H53.1666V162.708H53.6249V163.625H54.0833V164.542H54.5416V165.458H54.9999V166.375H55.4583V167.292H55.9166V168.208H56.3749V169.125H56.8333V170.042H57.2916V170.156V171.302V171.417H57.7499C57.7499 171.531 57.7499 171.799 57.7499 172.219V172.333H58.2083V173.25H58.6666V173.708H59.1249V174.625H59.5833V175.542H60.0416V176.458H60.4999V177.375H60.9583V178.292H61.4166V179.208H61.8749V180.125H62.3333V181.042H62.7916V181.958H63.2499V182.875H63.7083V183.792H64.1666V184.708H64.6249V185.625H65.0833V186.542H65.5416V187.458H65.9999V188.375H66.4583V189.292H66.9166V189.75H66.802H63.8228H63.7083V189.292H63.2499V188.375H62.7916V187.917H62.3333V187H61.8749V186.083H61.4166V185.167H60.9583V184.25H60.4999V183.333H60.0416V183.219V182.073V181.958H59.5833C59.5833 181.844 59.5833 181.576 59.5833 181.156V181.042H59.1249V180.125H58.6666V179.667H58.2083V179.208H58.0937H38.1562H38.0416V179.667H37.5833V180.125H37.1249V181.042H36.6666V181.958H36.2083V182.875H35.7499V183.792H35.2916V184.708H34.8333V185.625H34.3749V186.542H33.9166V187.458H33.4583C33.4583 187.573 33.4583 187.84 33.4583 188.26V188.375H32.9999V189.292H32.5416V189.75H32.427H29.4478H29.3333V189.292H29.7916V188.375H30.2499V187.458H30.7083V186.542H31.1666V185.625H31.6249V184.708H32.0833V183.792H32.5416V182.875H32.9999V181.958H33.4583V181.844V180.698V180.583H33.9166C33.9166 180.469 33.9166 180.201 33.9166 179.781V179.667H34.3749V178.75H34.8333V178.292H35.2916V177.375H35.7499V176.458H36.2083V175.542H36.6666V174.625H37.1249V173.708H37.5833V172.792H38.0416V171.875H38.4999V170.958H38.9583V170.042H39.4166V169.125H39.8749V168.208H40.3333V168.094V166.948V166.833H40.7916C40.7916 166.719 40.7916 166.451 40.7916 166.031V165.917H41.2499V165H41.7083V164.542H42.1666V163.625H42.6249V162.708H43.0833V161.792H43.5416V160.875H43.9999V159.958H44.4583V159.042H44.9166V158.125H45.3749V157.208H45.8333V156.292H46.2916V155.833ZM47.6666 159.042V159.958H47.2083V160.187C47.2083 160.493 47.2083 160.722 47.2083 160.875H46.7499V161.792H46.2916V162.708H45.8333V163.625H45.3749V164.542H44.9166V165.458H44.4583V166.375H43.9999V167.292H43.5416V168.208H43.0833V169.125H42.6249V170.042H42.1666V170.958H41.7083V171.875H41.2499V172.792H40.7916V173.708H40.3333V174.625H39.8749V175.542H39.4166C39.4166 175.694 39.4166 176 39.4166 176.458C39.4166 176.458 39.493 176.458 39.6458 176.458H56.8333V175.542H56.3749C56.3749 175.083 56.3749 174.778 56.3749 174.625H55.9166V174.167H55.4583V173.25H54.9999C54.9999 172.792 54.9999 172.486 54.9999 172.333H54.5416V171.417H54.0833V170.5H53.6249V169.583H53.1666V168.437V168.208H52.7083V167.292H52.2499V166.375H51.7916V165.458H51.3333V164.542H50.8749V163.625H50.4166V162.708H49.9583V161.792H49.4999V161.333H49.0416V160.417H48.5833C48.5833 159.958 48.5833 159.653 48.5833 159.5H48.1249V159.042H47.6666Z"/><path d="M93.9583 155.833H94.0728H120.427H120.542V156.292H120.656H122.26H122.375V156.75H123.292V157.208H124.208V157.667H124.667V158.125H125.125V158.583H125.583V159.042H126.042V159.5H126.5V160.417H126.958V161.333H127.417V161.448V162.594V162.708H127.875V162.823V167.177V167.292H127.417V167.406V168.552V168.667H126.958C126.958 168.781 126.958 169.049 126.958 169.469V169.583H126.5V170.5H126.042V170.958H125.583V171.417H125.125V171.875H124.667V172.333H123.75V172.792H122.833V173.25H122.719H121.573H121.458V173.708H121.344H120.198H120.083V174.167H119.625V174.625H120.083V175.083H120.542C120.542 175.198 120.542 175.465 120.542 175.885V176H121V176.917H121.458V177.375H121.917V178.292H122.375V178.75H122.833C122.833 178.865 122.833 179.132 122.833 179.552V179.667H123.292V180.583H123.75V181.042H124.208C124.208 181.156 124.208 181.424 124.208 181.844V181.958H124.667V182.875H125.125V183.333H125.583C125.583 183.448 125.583 183.715 125.583 184.135V184.25H126.042V185.167H126.5V185.625H126.958C126.958 185.74 126.958 186.007 126.958 186.427V186.542H127.417V187.458H127.875V187.917H128.333V188.833H128.792V189.292H129.25V189.75H129.135H125.698H125.583V189.292H125.125V188.375H124.667V187.917H124.208C124.208 187.802 124.208 187.535 124.208 187.115V187H123.75V186.083H123.292V185.625H122.833V184.708H122.375C122.375 184.594 122.375 184.326 122.375 183.906V183.792H121.917V182.875H121.458V182.417H121C121 182.302 121 182.035 121 181.615V181.5H120.542V180.583H120.083V180.125H119.625C119.625 180.01 119.625 179.743 119.625 179.323V179.208H119.167V178.292H118.708V177.833H118.25V176.917H117.792V176.458H117.333V175.542H116.875V174.625H116.417V174.167H116.302H96.8228H96.7083V174.281V189.635C96.7464 189.75 96.7083 189.788 96.5937 189.75H94.0728H93.9583V189.635V155.948V155.833ZM96.7083 158.583V158.812V171.417H96.9374H118.25V170.958H118.479H120.083V170.5H120.312H121.917V170.042H122.833V169.583H123.292V169.125H123.75V168.667H124.208V167.75H124.667V166.604V166.375H125.125V163.854V163.625H124.667V162.479V162.25H124.208V161.333H123.75V160.875H123.292V160.417H122.833V159.958H121.917V159.5H121V159.042H119.396H119.167V158.583H96.9374H96.7083Z"/><path d="M156.292 155.833H156.406H189.177C189.292 155.795 189.33 155.833 189.292 155.948V158.469V158.583H189.177H159.615H159.5V158.698V171.302V171.417H159.615H185.969C186.083 171.378 186.122 171.417 186.083 171.531V174.052V174.167H185.969H159.615H159.5V174.281V186.885V187H159.615H189.177C189.292 186.962 189.33 187 189.292 187.115V189.635V189.75H189.177H156.406H156.292V189.635V155.948V155.833Z"/></g></svg>