<svg xmlns="http://www.w3.org/2000/svg" width="20.484" height="24" viewBox="0 0 20.484 24">
    <path fill="#04F69F" d="M12.522 5.34c1.31 1.317 1.313 3.444.007 4.765l-.007.007-5.158 5.16c-.537.541-.534 1.416.007 1.954.542.537 1.417.534 1.954-.007l6.942-6.945c.461-.965.7-2.021.699-3.09 0-.463-.044-.924-.132-1.377C16.178 2.432 13.22-.003 9.782 0H.004v13.085l7.745-7.746c1.319-1.316 3.454-1.316 4.773 0z"/>
    <path fill="#04F69F" d="M17.986 11.375l-7.254 7.254c-.852.853-2.094 1.188-3.259.878-1.165-.31-2.076-1.22-2.39-2.383-.313-1.165.018-2.408.87-3.261.001-.003.004-.005.006-.007l5.16-5.16c.538-.542.534-1.417-.007-1.955-.541-.537-1.416-.534-1.954.007L.004 15.902v8.088h13.298c3.964 0 7.178-3.213 7.18-7.178.001-2.09-.91-4.075-2.496-5.437z"/>
</svg>
