<svg xmlns="http://www.w3.org/2000/svg" width="141" height="177"><defs><path id="a" d="M0 .1h136.7v171H0z"/><path id="c" d="M0 .1h136.7v171H0z"/></defs><g fill="none" fill-rule="evenodd"><path fill="#fff" d="M70 .1.9 14.3l-.1 1c0 .4-2.8 34.5 3.2 63.5q7.6 36.8 32.6 67.7a170 170 0 0 0 33 29l.9.6.8-.5c.2-.2 20.7-13.7 33-29a159 159 0 0 0 32.6-67.8c6-29 3.3-63 3.3-63.4l-.1-1.1L70.4 0z" opacity=".5"/><g transform="translate(2 1)"><mask id="b" fill="#fff"><use href="#a"/></mask><path fill="#fffffe" fill-rule="nonzero" d="M68.4 1.5 2 15.1S-.7 47.9 5 76.3a154 154 0 0 0 31.5 65.2c12 15 31.8 27.9 31.8 27.9s19.7-13 31.8-28c12-14.8 25.5-36.7 31.4-65 5.9-28.5 3-61.3 3-61.3z" mask="url(#b)"/></g><g transform="translate(2 1)"><mask id="d" fill="#fff"><use href="#c"/></mask><path fill="#1a1919" fill-rule="nonzero" d="m68.4 3 65 13.2c.1 2.4.5 9 .5 17.7a215 215 0 0 1-3.7 42.1q-7.4 35-31.1 64.6c-10.5 13-27 24.6-30.7 27a159 159 0 0 1-30.7-27A152 152 0 0 1 6.6 76a215 215 0 0 1-3.8-42c0-8.8.4-15.4.6-17.8zM68 0 .7 14v1c0 .4-2.8 33.5 3 61.7q7.6 35.7 31.8 65.8c12 15 31.9 28 32 28.2l.9.5.7-.5c.2-.2 20.1-13.3 32.2-28.2q24.1-30 31.6-65.8c6-28.2 3.2-61.3 3.2-61.7v-1L68.3 0z" mask="url(#d)"/></g><path fill="#1a1919" fill-rule="nonzero" d="m70.4 5.2-63.5 13s-2.6 31.6 3 58.9a149 149 0 0 0 30 62.6 155 155 0 0 0 30.5 26.8s18.9-12.4 30.4-26.8a149 149 0 0 0 30-62.6c5.7-27.3 3-58.9 3-58.9z"/><path fill="#fff101" fill-rule="nonzero" d="M70.4 42q.2.2-3.7 5.9c-2.7 3.7-5.3 6-5.3 6s-.4.3-.8-.1l-4.4-5.4-2.3 1.5 4.1 6q.1 0-.5 1c-.6.4-3.8 2.2-5.6 2.9s-3.8.5-4.3 2.7-1.4 2.7.7 9A91 91 0 0 0 59.6 94s.5.6 0 1-3.6 2.6-5.1 0c-1.6-2.6-2.4-2.7-3.5-2.7-1 0-2.1 1.6-2.1 3.5s1.4 5.7 5.4 5.7c2.2 0 4.9-2 4.9-2l2.3-1.6s.7-1 1.5 0 2.8 3.4 3.8 4.4l3.6 3.4 3.6-3.4c1-1 2.9-3.4 3.7-4.4s1.6 0 1.6 0l2.3 1.5s2.7 2.1 4.9 2.1c4 0 5.4-3.9 5.4-5.7s-1.1-3.5-2.2-3.5c-1 0-1.9.1-3.4 2.7-1.6 2.6-4.5.4-5.1 0s-.1-1-.1-1l3.4-5.2a91 91 0 0 0 8-17.4c2-6.2 1.1-6.7.6-8.9s-2.6-2-4.3-2.7-5-2.5-5.5-3q-.7-.8-.6-.8l4.2-6.1-2.4-1.5-4.4 5.4q-.7.4-.7.2s-2.6-2.4-5.3-6.1-3.7-6-3.7-6"/><path stroke="#fff101" stroke-width=".5" d="M70.4 42q.2.2-3.7 5.9c-2.7 3.7-5.3 6-5.3 6s-.4.3-.8-.1l-4.4-5.4-2.3 1.5 4.1 6q.1 0-.5 1c-.6.4-3.8 2.2-5.6 2.9s-3.8.5-4.3 2.7-1.4 2.7.7 9A91 91 0 0 0 59.6 94s.5.6 0 1-3.6 2.6-5.1 0c-1.6-2.6-2.4-2.7-3.5-2.7-1 0-2.1 1.6-2.1 3.5s1.4 5.7 5.4 5.7c2.2 0 4.9-2 4.9-2l2.3-1.6s.7-1 1.5 0 2.8 3.4 3.8 4.4l3.6 3.4 3.6-3.4c1-1 2.9-3.4 3.7-4.4s1.6 0 1.6 0l2.3 1.5s2.7 2.1 4.9 2.1c4 0 5.4-3.9 5.4-5.7s-1.1-3.5-2.2-3.5c-1 0-1.9.1-3.4 2.7-1.6 2.6-4.5.4-5.1 0s-.1-1-.1-1l3.4-5.2a91 91 0 0 0 8-17.4c2-6.2 1.1-6.7.6-8.9s-2.6-2-4.3-2.7-5-2.5-5.5-3q-.7-.8-.6-.8l4.2-6.1-2.4-1.5-4.4 5.4q-.7.4-.7.2s-2.6-2.4-5.3-6.1-3.7-6-3.7-6Z"/><path fill="#fff101" fill-rule="nonzero" d="M35.9 97.2h1q.2-3.2.5-4.1c.2-.8.8-.6.8-.6l1.6.5.4-1.1-4.4-1.6-.6 1.2 1.1.4c.3.1.3.6.3.6l-.6 2.7zm85.4-21.4s0-.7-.6-.3-1.5.5-3.2 2a18 18 0 0 0-3 3.7q-.4.8-.9.9-.2 0-.2-.7l.1-5.2s-.2-.6 1-2.2q1.5-2.5 2.3-3.1.7-.5 1-.2l.8.6 1.1-.7-2.9-3.2-.9.8.8 1.1q.1.2 0 .8c-.4.3-1.7 1.5-2.3 2.6q-.8 1.5-1.2 1.5-.3.1-.6-.5c-.2-.5-.9-1.8-1-3.5l-.5-5s-.3-5.4-3.3-8c-3-2.7-6.5-3.8-6.5-3.8l-.9-.3s-.4-.4-.4.5.1 3.7 2.7 6.6c2.7 3 4.4 3.9 4.4 3.9s2 1.5 2.9 3.9c1 2.3 1 2.5 1.3 3.8l.4 2.1s.1 1-.7.3-1.8-1.8-3-2.4l-1.9-.8s-.4-.3-.2-.6.4-1.5.4-1.5l-1-.3-2 4.2 1.1.6.9-1.3s0-.5.9 0 2.8 1.5 4 3.1 1.3 1.5 1.4 2v5.9l-.6 5.4-.3 1.3q0 .2-.3.4-.6-.2-.9-.8c-.1-.3-.7-1.1-1-3-.1-1.7-.8-5.4-2.3-7.2s-2.9-3-2.9-3-.5-.7-.6.3-.3 3.6.7 6.6 3.1 4.8 3.1 4.8 1.4 1.7 1.9 3.7.7 2.6.1 4l-.9 1.6-2.1 3.5c-.2.3-.7.8-.7.1v-5.6l-.6-2.7s0-.5.2-.6l1.1-.4-.6-1.2-4.4 1.6.4 1.1 1.6-.5s.7-.2.8.6c.1.5.5 2.2.5 4.1v2.6q-.2 2-.4 3h10.7c1-1.2 1.6-2.3 1.6-2.3s.3-.4-.4-.3c-.8 0-2.8-.1-4.8.7q-3.2 1.3-3.2 1.4s-.7.2-.4-.2l3-4.7.1-.2a10 10 0 0 1 2.8-2.3l2-1s.6-.3.8.1l.7 1.5 1-.2-1.6-4.5-.9.3.2 1.1s.3.5-.2.6q-.8.3-2.2 1l-1.1.8s-.5.3-.6-.3l.7-4s.2-1 1.2-1.8l4-3.5a13 13 0 0 0 4.2-5.8c.7-2.4.3-3.4.3-3.4M42.2 98c-.4-.4-.5.2-.5.2q0 0-.3 1.3c0 .4 0 1.9.4 3.4h3.7c-1-2.2-3-4.5-3.3-4.9m47.6 10.3v.3H91v-.3s.1-.4.4-.4h1.3v-1.3l-4.6-.4v1.3l1.5.2s.4 0 .3.6m-18 11.6-1.4.3q-.1 0-1.4-.3c-1.2-.4-2.8-1.2-2.8-3 0-1.6 1.2-2.3 2.3-2.7 1-.3 1.9-.3 1.9-.3s.9 0 1.8.3c1.1.4 2.3 1.1 2.3 2.7 0 1.8-1.6 2.6-2.8 3m27.8-11.3-1.6 1.7s-1.2 1-1.2.2q0-.6.2-2l1-2.6q.6-1.4 1-3c.3-1.5.4-3 .3-3.4l-.2-1.3s-.2-.6-.5-.2-2.4 2.7-3.4 4.9l-.4 1.2c-.5 1.6-.6 3.4-.6 4.5v.8s.2 3.3-1 4.2l-2.9 2q-1.7 1.2-2 .9-.3-.5.6-1.7l.3-.6c.6-1 1.4-3 1.6-4l.1-1.6h-1a14 14 0 0 1-2 5.6c-1.2 2.3-1.4 3.2-2.6 3.8q-2 1-3.1 1.2c-1 .3-2.5.6-1.5-.7.8-1 2.4-2.4 3.3-4.3l.5-1.4.5-3.2s.3-.8-1 0c-1.1 1-3.1 2.3-4 4.4v.2c-.8 2-1.2 4-1.9 4.7-.7.6-.8.8-1.6 1h-1.3q-.3 0 0-.4c.5-.4 1.3-1.3 1.3-2.6q0-1.3-1.5-2.7-.7-.8-1.8-1-2.7-.6-2.8-.4-.1 0-2.9.3-1 .3-1.8 1.1c-.8.8-1.4 2-1.4 2.7 0 1.3.8 2.2 1.2 2.6q.3.3 0 .4h-1.1c-1-.1-1-.3-1.8-1-.7-.7-1-2.6-1.8-4.7v-.2c-1-2-3-3.5-4.1-4.3-1.2-.9-1-.1-1-.1l.6 3.2q.1.8.5 1.4c.9 2 2.5 3.3 3.2 4.3 1 1.3-.5 1-1.4.7q-1.3-.2-3.1-1.2c-1.3-.6-1.5-1.5-2.7-3.8h-1.3l.3.6q.9 1.2.7 1.7-.4.3-2-.8l-2.2-1.5h-3l2.4 1.4c.5.2-.2.4-.2.4l-1.3-.2-3.3-.4c-1 .2-1.5.5-2.5.8-1.1.4-2.8 1.3-3.2 1.5s-.2.4-.2.4 1.3 1.2 3.7 1.8q1.4.3 3 .4 2 0 3.5-.4c2.5-.5 4.2-1.4 4.6-1.6a1 1 0 0 1 1 .2l3.5 1.4 1.7.5c.6.1 0 .6 0 .6l-1.4.7-3.7 2.3c-.7.5-1.1 0-1.1 0l-1-1.1-1.2 1 3.7 4.3 1.1-1-.8-1c-.6-.9.4-1.4.4-1.4s2.5-1.7 4.3-2.5 2.3-1.1 5-1.1q3.6.2 4 .5c.3.2 0 .6 0 .6s-1.6.8-3.8 3.5a10 10 0 0 0-2.4 5.5H65s-.1-1 1.7-4.4 3.8-3.9 3.8-3.9 1.9.4 3.7 3.9c1.9 3.4 1.7 4.4 1.7 4.4h3.8s-.1-2.8-2.3-5.5-3.8-3.5-3.8-3.5-.3-.4 0-.6q.3-.3 4-.5c2.6 0 3.2.3 5 1 1.7.9 4.3 2.6 4.3 2.6s1 .5.4 1.3q-.8 1.2-.9 1.1l1.2 1L91 124l-1.2-1.1-1 1s-.3.6-1 .1c-.8-.5-3-2-3.7-2.3l-1.4-.7s-.6-.5 0-.6l1.6-.5 2-.7 1.6-.7s.4-.4 1-.2c.3.2 2 1 4.5 1.6q1.5.3 3.5.4l3-.4a10 10 0 0 0 3.7-1.8s.3-.2-.1-.4l-3.2-1.5-2-.5q-1.7-.2-3.8.1l-1.4.2s-.7-.2-.2-.4l2.5-1.4.6-.3c1.3-.5 1.7-.8 2.6-.8l4 .1q1.7.2 1.8.9v1.4l1 .1.7-4.5-1-.2-.3 1.2q0 .2-.5.3c-.5 0-1.9-.4-3.3-.4H99s-.6-.3-.2-.7l2.2-2.7.2-.3s.5-.6 1.8-.8c1.2-.2 5.6-.5 8.4-2.2a12 12 0 0 0 2.8-2.4h-10.7q-.2 1.4-1.2 2.8zm-53 .8v-.8c0-1-.2-2.9-.6-4.5l-.5-1.2h-3.7q.3 1.7 1 3l.9 2.7.3 2c0 .7-1.2-.3-1.2-.3l-1.7-1.7q-1.3-1.5-2.5-3-1.1-1.4-1.3-2.7l-.3-3-.1-2.7h-1v3.6c0 .7-.4.2-.7 0l-2-3.6-1-1.7c-.6-1.3-.2-2 .2-4 .4-1.9 1.8-3.6 1.8-3.6s2.2-1.8 3.1-4.8c1-3 .8-5.7.7-6.6 0-1-.6-.3-.6-.3s-1.5 1.2-3 3a18 18 0 0 0-2.2 7.3q-.6 2.5-1 3c-.1.2-.4.7-.8.7s-.4-.4-.4-.4l-.3-1.3c-.2-1-.3-4.4-.5-5.4v-5.9c0-.5 0-.4 1.3-2 1.2-1.6 3.1-2.7 4-3.2 1-.4 1 0 1 0l.8 1.4 1-.6-1.8-4.2-1 .3s.2 1.2.4 1.5c.1.3-.3.6-.3.6l-1.9.8c-1.1.6-2.2 1.8-3 2.4s-.6-.3-.6-.3q0-.1.3-2c.3-1.4.4-1.6 1.4-4 1-2.3 2.8-3.8 2.8-3.8s1.8-1 4.4-4c2.6-2.8 2.7-5.6 2.7-6.5s-.4-.5-.4-.5l-.9.3S36 54.5 33 57.2s-3.3 8-3.3 8l-.5 5c-.2 1.7-.9 3-1.1 3.5q-.2.6-.6.5t-1.2-1.5c-.6-1.1-1.9-2.3-2.2-2.6s0-.8 0-.8l.7-1-.9-.9-2.9 3.2 1 .7 1-.6c.3-.2.3-.1.9.2q.8.6 2.4 3c1.1 1.7 1 2.3 1 2.3v5.2q0 .7-.2.7-.4-.1-.8-1c-.2-.4-1.4-2-3-3.5-1.7-1.6-2.6-1.7-3.2-2-.6-.5-.7.2-.7.2s-.3 1 .4 3.4 2.9 4.9 4 5.8 3.2 2.6 4.2 3.5a4 4 0 0 1 1.1 1.8s.8 3.5.7 4c0 .6-.5.3-.5.3L28 94c-.7-.6-1.8-1-2.2-1-.4-.2-.2-.7-.2-.7l.2-1.1-.8-.3-1.6 4.5 1 .2.7-1.5c.2-.4.7-.2.7-.2l2 1q2.4 1.7 2.8 2.4l.1.2 3 4.7c.3.4-.3.2-.3.2l-3.2-1.4c-2-.8-4-.6-4.8-.7s-.5.3-.5.3.6 1.1 1.7 2.4a12 12 0 0 0 2.7 2.4c2.9 1.7 7.2 2 8.5 2.2s1.7.8 1.7.8l.2.3 2.3 2.7c.3.4-.3.6-.3.6h-2.2c-1.4.1-2.8.4-3.2.5q-.6-.2-.6-.3l-.3-1.2-1 .2.7 4.5 1-.1V114q0-.7 1.9-.9c1.1-.2 3-.2 4-.1.8 0 1.2.3 2.5.8l.6.3h3.1l-.9-.6c-1.1-1-.8-4.2-.8-4.2m6 4.4a14 14 0 0 1-1.7-5.2v-.3q.1-.7.3-.6l1.6-.2v-1.3l-4.7.4v1.3h1.3q.4.2.4.4a15 15 0 0 0 1.7 6h1.3q0-.2-.3-.5"/><path stroke="#fff101" stroke-width=".5" d="M35.9 97.2h1q.2-3.2.5-4.1c.2-.8.8-.6.8-.6l1.6.5.4-1.1-4.4-1.6-.6 1.2 1.1.4c.3.1.3.6.3.6l-.6 2.7zm85.4-21.4s0-.7-.6-.3-1.5.5-3.2 2a18 18 0 0 0-3 3.7q-.4.8-.9.9-.2 0-.2-.7l.1-5.2s-.2-.6 1-2.2q1.5-2.5 2.3-3.1.7-.5 1-.2l.8.6 1.1-.7-2.9-3.2-.9.8.8 1.1q.1.2 0 .8c-.4.3-1.7 1.5-2.3 2.6q-.8 1.5-1.2 1.5-.3.1-.6-.5c-.2-.5-.9-1.8-1-3.5l-.5-5s-.3-5.4-3.3-8c-3-2.7-6.5-3.8-6.5-3.8l-.9-.3s-.4-.4-.4.5.1 3.7 2.7 6.6c2.7 3 4.4 3.9 4.4 3.9s2 1.5 2.9 3.9c1 2.3 1 2.5 1.3 3.8l.4 2.1s.1 1-.7.3-1.8-1.8-3-2.4l-1.9-.8s-.4-.3-.2-.6.4-1.5.4-1.5l-1-.3-2 4.2 1.1.6.9-1.3s0-.5.9 0 2.8 1.5 4 3.1 1.3 1.5 1.4 2v5.9l-.6 5.4-.3 1.3q0 .2-.3.4-.6-.2-.9-.8c-.1-.3-.7-1.1-1-3-.1-1.7-.8-5.4-2.3-7.2s-2.9-3-2.9-3-.5-.7-.6.3-.3 3.6.7 6.6 3.1 4.8 3.1 4.8 1.4 1.7 1.9 3.7.7 2.6.1 4l-.9 1.6-2.1 3.5c-.2.3-.7.8-.7.1v-5.6l-.6-2.7s0-.5.2-.6l1.1-.4-.6-1.2-4.4 1.6.4 1.1 1.6-.5s.7-.2.8.6c.1.5.5 2.2.5 4.1v2.6q-.2 2-.4 3h10.7c1-1.2 1.6-2.3 1.6-2.3s.3-.4-.4-.3c-.8 0-2.8-.1-4.8.7q-3.2 1.3-3.2 1.4s-.7.2-.4-.2l3-4.7.1-.2a10 10 0 0 1 2.8-2.3l2-1s.6-.3.8.1l.7 1.5 1-.2-1.6-4.5-.9.3.2 1.1s.3.5-.2.6q-.8.3-2.2 1l-1.1.8s-.5.3-.6-.3l.7-4s.2-1 1.2-1.8l4-3.5a13 13 0 0 0 4.2-5.8c.7-2.4.3-3.4.3-3.4ZM42.2 98c-.4-.4-.5.2-.5.2q0 0-.3 1.3c0 .4 0 1.9.4 3.4h3.7c-1-2.2-3-4.5-3.3-4.9Zm47.6 10.3v.3H91v-.3s.1-.4.4-.4h1.3v-1.3l-4.6-.4v1.3l1.5.2s.4 0 .3.6Zm-18 11.6-1.4.3q-.1 0-1.4-.3c-1.2-.4-2.8-1.2-2.8-3 0-1.6 1.2-2.3 2.3-2.7 1-.3 1.9-.3 1.9-.3s.9 0 1.8.3c1.1.4 2.3 1.1 2.3 2.7 0 1.8-1.6 2.6-2.8 3Zm27.8-11.3-1.6 1.7s-1.2 1-1.2.2q0-.6.2-2l1-2.6q.6-1.4 1-3c.3-1.5.4-3 .3-3.4l-.2-1.3s-.2-.6-.5-.2-2.4 2.7-3.4 4.9l-.4 1.2c-.5 1.6-.6 3.4-.6 4.5v.8s.2 3.3-1 4.2l-2.9 2q-1.7 1.2-2 .9-.3-.5.6-1.7l.3-.6c.6-1 1.4-3 1.6-4l.1-1.6h-1a14 14 0 0 1-2 5.6c-1.2 2.3-1.4 3.2-2.6 3.8q-2 1-3.1 1.2c-1 .3-2.5.6-1.5-.7.8-1 2.4-2.4 3.3-4.3l.5-1.4.5-3.2s.3-.8-1 0c-1.1 1-3.1 2.3-4 4.4v.2c-.8 2-1.2 4-1.9 4.7-.7.6-.8.8-1.6 1h-1.3q-.3 0 0-.4c.5-.4 1.3-1.3 1.3-2.6q0-1.3-1.5-2.7-.7-.8-1.8-1-2.7-.6-2.8-.4-.1 0-2.9.3-1 .3-1.8 1.1c-.8.8-1.4 2-1.4 2.7 0 1.3.8 2.2 1.2 2.6q.3.3 0 .4h-1.1c-1-.1-1-.3-1.8-1-.7-.7-1-2.6-1.8-4.7v-.2c-1-2-3-3.5-4.1-4.3-1.2-.9-1-.1-1-.1l.6 3.2q.1.8.5 1.4c.9 2 2.5 3.3 3.2 4.3 1 1.3-.5 1-1.4.7q-1.3-.2-3.1-1.2c-1.3-.6-1.5-1.5-2.7-3.8h-1.3l.3.6q.9 1.2.7 1.7-.4.3-2-.8l-2.2-1.5h-3l2.4 1.4c.5.2-.2.4-.2.4l-1.3-.2-3.3-.4c-1 .2-1.5.5-2.5.8-1.1.4-2.8 1.3-3.2 1.5s-.2.4-.2.4 1.3 1.2 3.7 1.8q1.4.3 3 .4 2 0 3.5-.4c2.5-.5 4.2-1.4 4.6-1.6a1 1 0 0 1 1 .2l3.5 1.4 1.7.5c.6.1 0 .6 0 .6l-1.4.7-3.7 2.3c-.7.5-1.1 0-1.1 0l-1-1.1-1.2 1 3.7 4.3 1.1-1-.8-1c-.6-.9.4-1.4.4-1.4s2.5-1.7 4.3-2.5 2.3-1.1 5-1.1q3.6.2 4 .5c.3.2 0 .6 0 .6s-1.6.8-3.8 3.5a10 10 0 0 0-2.4 5.5H65s-.1-1 1.7-4.4 3.8-3.9 3.8-3.9 1.9.4 3.7 3.9c1.9 3.4 1.7 4.4 1.7 4.4h3.8s-.1-2.8-2.3-5.5-3.8-3.5-3.8-3.5-.3-.4 0-.6q.3-.3 4-.5c2.6 0 3.2.3 5 1 1.7.9 4.3 2.6 4.3 2.6s1 .5.4 1.3q-.8 1.2-.9 1.1l1.2 1L91 124l-1.2-1.1-1 1s-.3.6-1 .1c-.8-.5-3-2-3.7-2.3l-1.4-.7s-.6-.5 0-.6l1.6-.5 2-.7 1.6-.7s.4-.4 1-.2c.3.2 2 1 4.5 1.6q1.5.3 3.5.4l3-.4a10 10 0 0 0 3.7-1.8s.3-.2-.1-.4l-3.2-1.5-2-.5q-1.7-.2-3.8.1l-1.4.2s-.7-.2-.2-.4l2.5-1.4.6-.3c1.3-.5 1.7-.8 2.6-.8l4 .1q1.7.2 1.8.9v1.4l1 .1.7-4.5-1-.2-.3 1.2q0 .2-.5.3c-.5 0-1.9-.4-3.3-.4H99s-.6-.3-.2-.7l2.2-2.7.2-.3s.5-.6 1.8-.8c1.2-.2 5.6-.5 8.4-2.2a12 12 0 0 0 2.8-2.4h-10.7q-.2 1.4-1.2 2.8zm-53 .8v-.8c0-1-.2-2.9-.6-4.5l-.5-1.2h-3.7q.3 1.7 1 3l.9 2.7.3 2c0 .7-1.2-.3-1.2-.3l-1.7-1.7q-1.3-1.5-2.5-3-1.1-1.4-1.3-2.7l-.3-3-.1-2.7h-1v3.6c0 .7-.4.2-.7 0l-2-3.6-1-1.7c-.6-1.3-.2-2 .2-4 .4-1.9 1.8-3.6 1.8-3.6s2.2-1.8 3.1-4.8c1-3 .8-5.7.7-6.6 0-1-.6-.3-.6-.3s-1.5 1.2-3 3a18 18 0 0 0-2.2 7.3q-.6 2.5-1 3c-.1.2-.4.7-.8.7s-.4-.4-.4-.4l-.3-1.3c-.2-1-.3-4.4-.5-5.4v-5.9c0-.5 0-.4 1.3-2 1.2-1.6 3.1-2.7 4-3.2 1-.4 1 0 1 0l.8 1.4 1-.6-1.8-4.2-1 .3s.2 1.2.4 1.5c.1.3-.3.6-.3.6l-1.9.8c-1.1.6-2.2 1.8-3 2.4s-.6-.3-.6-.3q0-.1.3-2c.3-1.4.4-1.6 1.4-4 1-2.3 2.8-3.8 2.8-3.8s1.8-1 4.4-4c2.6-2.8 2.7-5.6 2.7-6.5s-.4-.5-.4-.5l-.9.3S36 54.5 33 57.2s-3.3 8-3.3 8l-.5 5c-.2 1.7-.9 3-1.1 3.5q-.2.6-.6.5t-1.2-1.5c-.6-1.1-1.9-2.3-2.2-2.6s0-.8 0-.8l.7-1-.9-.9-2.9 3.2 1 .7 1-.6c.3-.2.3-.1.9.2q.8.6 2.4 3c1.1 1.7 1 2.3 1 2.3v5.2q0 .7-.2.7-.4-.1-.8-1c-.2-.4-1.4-2-3-3.5-1.7-1.6-2.6-1.7-3.2-2-.6-.5-.7.2-.7.2s-.3 1 .4 3.4 2.9 4.9 4 5.8 3.2 2.6 4.2 3.5a4 4 0 0 1 1.1 1.8s.8 3.5.7 4c0 .6-.5.3-.5.3L28 94c-.7-.6-1.8-1-2.2-1-.4-.2-.2-.7-.2-.7l.2-1.1-.8-.3-1.6 4.5 1 .2.7-1.5c.2-.4.7-.2.7-.2l2 1q2.4 1.7 2.8 2.4l.1.2 3 4.7c.3.4-.3.2-.3.2l-3.2-1.4c-2-.8-4-.6-4.8-.7s-.5.3-.5.3.6 1.1 1.7 2.4a12 12 0 0 0 2.7 2.4c2.9 1.7 7.2 2 8.5 2.2s1.7.8 1.7.8l.2.3 2.3 2.7c.3.4-.3.6-.3.6h-2.2c-1.4.1-2.8.4-3.2.5q-.6-.2-.6-.3l-.3-1.2-1 .2.7 4.5 1-.1V114q0-.7 1.9-.9c1.1-.2 3-.2 4-.1.8 0 1.2.3 2.5.8l.6.3h3.1l-.9-.6c-1.1-1-.8-4.2-.8-4.2Zm6 4.4a14 14 0 0 1-1.7-5.2v-.3q.1-.7.3-.6l1.6-.2v-1.3l-4.7.4v1.3h1.3q.4.2.4.4a15 15 0 0 0 1.7 6h1.3q0-.2-.3-.5Z"/><path fill="#fffffe" fill-rule="nonzero" d="M70.4 48.6s-4 5.4-8.1 7.8c-4.1 2.5-7 4.4-8.4 4.8-1.4.5-3.9 2.3-3.4 5.4s3.2 12.6 6 17.6a113 113 0 0 0 13.9 18.5z"/><path fill="#d8232a" fill-rule="nonzero" d="M70.4 48.6s4 5.4 8 7.8c4.1 2.5 7.1 4.4 8.5 4.8 1.3.5 3.8 2.3 3.3 5.4a70 70 0 0 1-6 17.6c-3 5-9.1 13.7-11.1 15.6q-2.8 3-2.7 2.9zm0 37.3-2.5 1.7 1-2.9-2.4-1.8h3l.9-2.8zm0 8.3L67.9 96l1-2.9-2.4-1.8h3l.9-2.8zm0-16.6-2.5 1.7 1-2.9-2.4-1.8h3l.9-2.8zm0-8.4-2.5 1.7 1-2.8-2.4-1.8h3l.9-2.8zm0-8.4-2.5 1.8 1-2.9-2.4-1.8h3l.9-2.8z"/><path fill="#fffffe" fill-rule="nonzero" d="m70.4 94.2 2.4 1.8-.9-2.9 2.4-1.8h-3l-.9-2.8zM70.4 85.9l2.4 1.7-.9-2.9 2.4-1.8h-3l-.9-2.8zM70.4 77.6l2.4 1.7-.9-2.9 2.4-1.8h-3l-.9-2.8zM70.4 69.2l2.4 1.7-.9-2.8 2.4-1.8h-3l-.9-2.8zM70.4 60.8l2.4 1.8-.9-2.9 2.4-1.8h-3l-.9-2.8z"/><path stroke="#1a1919" stroke-linecap="round" stroke-linejoin="round" d="M70.4 48.6s-4 5.4-8.1 7.8c-4.1 2.5-7 4.4-8.4 4.8-1.4.5-3.9 2.3-3.4 5.4s3.2 12.6 6 17.6a113 113 0 0 0 13.9 18.5q-.2 0 2.7-2.9c2-2 8.2-10.6 11-15.6 3-5 5.6-14.5 6.1-17.6.5-3-2-4.9-3.3-5.4-1.4-.4-4.4-2.3-8.4-4.8-4-2.4-8.1-7.8-8.1-7.8"/><path fill="#d8232a" fill-rule="nonzero" d="m59.4 60.2-.9 2.8h-3l2.4 1.8-.9 2.9 2.4-1.8 2.4 1.8-.9-2.9 2.4-1.8h-3z"/><path stroke="#1a1919" stroke-linecap="round" stroke-linejoin="round" stroke-width=".5" d="m59.4 60.2-.9 2.8h-3 0l2.4 1.8-.9 2.9h0l2.4-1.8 2.4 1.8h0l-.9-2.9 2.4-1.8h0-3z"/><path fill="#fffffe" fill-rule="nonzero" d="M81.4 60.2h-.1l-.9 2.8h-3l2.5 1.8-1 2.9h.1l2.4-1.8 2.4 1.8-1-2.9 2.5-1.8h-3.1z"/><path stroke="#1a1919" stroke-linecap="round" stroke-linejoin="round" stroke-width=".5" d="M81.4 60.2h-.1l-.9 2.8h-3 0l2.5 1.8-1 2.9h.1l2.4-1.8 2.4 1.8h0l-1-2.9 2.5-1.8h0-3.1z"/><path fill="#d8232a" fill-rule="nonzero" d="m60.2 67.7-.9 2.8h-3l2.4 1.8-.9 2.9 2.4-1.8 2.4 1.8-.9-2.9 2.4-1.8h-3z"/><path stroke="#1a1919" stroke-linecap="round" stroke-linejoin="round" stroke-width=".5" d="m60.2 67.7-.9 2.8h-3 0l2.4 1.8-.9 2.9h0l2.4-1.8 2.4 1.8h0l-.9-2.9 2.4-1.8h0-3z"/><path fill="#fffffe" fill-rule="nonzero" d="m80.5 67.7-.9 2.8h-3l2.5 1.8-1 2.9 2.4-1.8 2.4 1.8h.1l-1-2.9 2.4-1.8h-3z"/><path stroke="#1a1919" stroke-linecap="round" stroke-linejoin="round" stroke-width=".5" d="m80.5 67.7-.9 2.8h-3 0l2.5 1.8-1 2.9h0l2.4-1.8 2.4 1.8h.1l-1-2.9 2.4-1.8h0-3z"/><path fill="#d8232a" fill-rule="nonzero" d="m60.8 75.2-.8 2.7h-2.9v.1l2.3 1.7-.9 2.7v.1l2.3-1.8 2.3 1.8.1-.1-1-2.7 2.4-1.7v-.1h-2.9z"/><path stroke="#1a1919" stroke-linecap="round" stroke-linejoin="round" stroke-width=".5" d="m60.8 75.2-.8 2.7h-2.9v.1l2.3 1.7-.9 2.7v.1l2.3-1.8 2.3 1.8.1-.1-1-2.7 2.4-1.7v-.1h-2.9z"/><path fill="#fffffe" fill-rule="nonzero" d="m79.9 75.2-.9 2.7h-2.9v.1l2.4 1.7-.9 2.7v.1l2.3-1.8 2.3 1.8v-.1l-.9-2.7 2.4-1.7v-.1h-2.9z"/><path stroke="#1a1919" stroke-linecap="round" stroke-linejoin="round" stroke-width=".5" d="m79.9 75.2-.9 2.7h-2.9v.1l2.4 1.7-.9 2.7v.1l2.3-1.8 2.3 1.8v-.1l-.9-2.7 2.4-1.7v-.1h-2.9z"/><path fill="#fffffe" fill-rule="nonzero" d="m76.9 83.1-.9 2.6h-2.8l2.3 1.7-.9 2.6 2.3-1.6 2.2 1.6-.9-2.6 2.3-1.7h-2.8z"/><path stroke="#1a1919" stroke-linecap="round" stroke-linejoin="round" stroke-width=".5" d="m76.9 83.1-.9 2.6h-2.8 0l2.3 1.7-.9 2.6h0l2.3-1.6 2.2 1.6h0l-.9-2.6 2.3-1.7h0-2.8z"/><path fill="#d8232a" fill-rule="nonzero" d="m63.9 83.1-.8 2.6h-2.8l2.3 1.7-.9 2.6 2.2-1.6 2.3 1.6-.9-2.6 2.2-1.7h-2.7z"/><path stroke="#1a1919" stroke-linecap="round" stroke-linejoin="round" stroke-width=".5" d="m70.4 88.5-1 2.8h-3L69 93l-1 2.9 2.5-1.8 2.4 1.8-1-2.9 2.5-1.8h-3zm0-33.4-1 2.8h-3l2.5 1.8-1 2.9 2.5-1.8 2.4 1.8-1-2.9 2.5-1.8h-3zm0 8.4-1 2.8h-3L69 68l-1 2.8 2.5-1.7 2.4 1.7-1-2.8 2.5-1.8h-3zm0 16.6-1 2.8h-3l2.5 1.8-1 3 2.5-1.8 2.4 1.7-1-2.9 2.5-1.8h-3zm0-8.3-1 2.8h-3l2.5 1.8-1 3 2.5-1.8 2.4 1.7-1-2.9 2.5-1.8h-3zm-6.5 11.3zl-.8 2.6h-2.8 0l2.3 1.7-.9 2.6h0l2.2-1.6 2.3 1.6h0l-.9-2.6 2.2-1.7h0-2.7z"/><path fill="#d8232a" fill-rule="nonzero" d="M50 143.7c0 1 .5 2.7 3.5 2.7.7 0 3.3-.2 3.3-2.7q-.2-2-2.2-2.2l-2-.5c-.3 0-.9-.2-.9-.8 0-.8.8-1 1.5-1 1.5 0 1.6.9 1.6 1.2h1.7c0-1-.7-2.6-3.2-2.6-2.7 0-3.2 1.6-3.2 2.5 0 1.8 1.3 2.1 2.6 2.4l1 .2q1.3.2 1.4 1c0 1-.9 1.1-1.7 1.1-1.5 0-1.7-.9-1.7-1.3z"/><path stroke="#d8232a" stroke-width=".5" d="M50 143.7c0 1 .5 2.7 3.5 2.7.7 0 3.3-.2 3.3-2.7q-.2-2-2.2-2.2l-2-.5c-.3 0-.9-.2-.9-.8 0-.8.8-1 1.5-1 1.5 0 1.6.9 1.6 1.2h1.7c0-1-.7-2.6-3.2-2.6-2.7 0-3.2 1.6-3.2 2.5 0 1.8 1.3 2.1 2.6 2.4l1 .2q1.3.2 1.4 1c0 1-.9 1.1-1.7 1.1-1.5 0-1.7-.9-1.7-1.3z"/><path fill="#d8232a" fill-rule="nonzero" d="M64.6 138h-1.8v5.4q0 1.6-1.6 1.6-1.4 0-1.5-1.7V138H58v5.4q0 1.3.6 2 1.2 1.1 2.6 1c2 0 3.4-.9 3.4-3z"/><path stroke="#d8232a" stroke-width=".5" d="M64.6 138h-1.8v5.4q0 1.6-1.6 1.6-1.4 0-1.5-1.7V138H58v5.4q0 1.3.6 2 1.2 1.1 2.6 1c2 0 3.4-.9 3.4-3z"/><path fill="#d8232a" fill-rule="nonzero" d="M66 146.2h1.8V138H66z"/><path stroke="#d8232a" stroke-width=".5" d="M66 146.2h1.8V138H66z"/><path fill="#d8232a" fill-rule="nonzero" d="M69 143.7c0 1 .4 2.7 3.4 2.7.7 0 3.3-.2 3.3-2.7 0-1.4-1-1.9-2.2-2.2l-2-.5c-.3 0-.9-.2-.9-.8 0-.8.8-1 1.5-1 1.5 0 1.6.9 1.6 1.2h1.7c0-1-.7-2.6-3.2-2.6-2.7 0-3.2 1.6-3.2 2.5 0 1.8 1.3 2.1 2.6 2.4l1 .2q1.3.2 1.4 1c0 1-.9 1.1-1.7 1.1-1.5 0-1.7-.9-1.7-1.3z"/><path stroke="#d8232a" stroke-width=".5" d="M69 143.7c0 1 .4 2.7 3.4 2.7.7 0 3.3-.2 3.3-2.7 0-1.4-1-1.9-2.2-2.2l-2-.5c-.3 0-.9-.2-.9-.8 0-.8.8-1 1.5-1 1.5 0 1.6.9 1.6 1.2h1.7c0-1-.7-2.6-3.2-2.6-2.7 0-3.2 1.6-3.2 2.5 0 1.8 1.3 2.1 2.6 2.4l1 .2q1.3.2 1.4 1c0 1-.9 1.1-1.7 1.1-1.5 0-1.7-.9-1.7-1.3z"/><path fill="#d8232a" fill-rule="nonzero" d="M76.5 143.7c0 1 .5 2.7 3.5 2.7.7 0 3.2-.2 3.2-2.7 0-1.4-1-1.9-2.1-2.2l-2-.5q-.7 0-.9-.8c0-.8.8-1 1.4-1 1.5 0 1.7.9 1.7 1.2H83c0-1-.7-2.6-3.2-2.6-2.7 0-3.2 1.6-3.2 2.5 0 1.8 1.3 2.1 2.6 2.4l.9.2q1.4.2 1.5 1c0 1-1 1.1-1.7 1.1-1.5 0-1.8-.9-1.8-1.3z"/><path stroke="#d8232a" stroke-width=".5" d="M76.5 143.7c0 1 .5 2.7 3.5 2.7.7 0 3.2-.2 3.2-2.7 0-1.4-1-1.9-2.1-2.2l-2-.5q-.7 0-.9-.8c0-.8.8-1 1.4-1 1.5 0 1.7.9 1.7 1.2H83c0-1-.7-2.6-3.2-2.6-2.7 0-3.2 1.6-3.2 2.5 0 1.8 1.3 2.1 2.6 2.4l.9.2q1.4.2 1.5 1c0 1-1 1.1-1.7 1.1-1.5 0-1.8-.9-1.8-1.3z"/><path fill="#d8232a" fill-rule="nonzero" d="M90.5 138h-6v8.2h6.2v-1.4h-4.5v-2.2h4v-1.4h-4v-1.7h4.3z"/><path stroke="#d8232a" stroke-width=".5" d="M90.5 138h-6v8.2h6.2v-1.4h-4.5v-2.2h4v-1.4h-4v-1.7h4.3z"/><path fill="#fff101" fill-rule="nonzero" d="m17 58.9.4-1.9c1.5.8 1.3 2 1.3 2.4-.3 1.1-1.2 2.2-3.4 1.6-2-.5-2.6-1.8-2.3-3s1.5-1.5 1.8-1.4l.4-1.6c-1.1-.2-3 .3-3.6 2.8-.6 2.7 1.1 4.4 3.3 5 2.8.6 4.6-.8 5-2.7.4-1.4-.1-2.2-.5-2.8l1 .1.3-1.1-4.3-1-.8 3.2z"/><path stroke="#fff101" stroke-width=".5" d="m17 58.9.4-1.9c1.5.8 1.3 2 1.3 2.4-.3 1.1-1.2 2.2-3.4 1.6-2-.5-2.6-1.8-2.3-3s1.5-1.5 1.8-1.4l.4-1.6c-1.1-.2-3 .3-3.6 2.8-.6 2.7 1.1 4.4 3.3 5 2.8.6 4.6-.8 5-2.7.4-1.4-.1-2.2-.5-2.8l1 .1.3-1.1-4.3-1-.8 3.2z"/><path fill="#fff101" fill-rule="nonzero" d="M20.4 49.7c.7.3 1.6 1 1 2-.5 1.2-1.5 1-2.2.7s-1.6-1-1.1-2.1 1.5-1 2.3-.6m.6-1.5c-2-.9-3.5 0-4.2 1.5-.6 1.5-.3 3.3 1.7 4.2s3.5 0 4.2-1.6c.6-1.5.3-3.2-1.7-4.1"/><path stroke="#fff101" stroke-width=".5" d="M20.4 49.7c.7.3 1.6 1 1 2-.5 1.2-1.5 1-2.2.7s-1.6-1-1.1-2.1 1.5-1 2.3-.6Zm.6-1.5c-2-.9-3.5 0-4.2 1.5-.6 1.5-.3 3.3 1.7 4.2s3.5 0 4.2-1.6c.6-1.5.3-3.2-1.7-4.1Z"/><path fill="#fff101" fill-rule="nonzero" d="m18.3 42.8-.8 1.4 7 4.2.8-1.4z"/><path stroke="#fff101" stroke-width=".5" d="m18.3 42.8-.8 1.4 7 4.2.8-1.4z"/><path fill="#fff101" fill-rule="nonzero" d="m22.8 41.7.5-.9-1-.6-.5 1-.2-.2q-.7-.2-.3-.8l.2-.4-1-.7q-.2.1-.5.7-1 1.5.6 2.5l.4.2-.5.8 1 .5.5-.7 4.2 2.5.8-1.3z"/><path stroke="#fff101" stroke-width=".5" d="m22.8 41.7.5-.9-1-.6-.5 1-.2-.2q-.7-.2-.3-.8l.2-.4-1-.7q-.2.1-.5.7-1 1.5.6 2.5l.4.2-.5.8 1 .5.5-.7 4.2 2.5.8-1.3z"/><path fill="#fff101" fill-rule="nonzero" d="m26.8 38-2 2.5 1.2.9 2-2.5z"/><path stroke="#fff101" stroke-width=".5" d="m26.8 38-2 2.5 1.2.9 2-2.5z"/><path fill="#fff101" fill-rule="nonzero" d="M31.2 30.7c-1-.7-2.9-1.1-4.5.7-1.4 1.6-1.4 3.8.7 5.7q3.3 2.7 5.7.1 2-2.4.1-4.7l-1.1 1.3q.9 1.3 0 2.4c-1 1-2.4.6-3.5-.4-1.7-1.5-1.3-2.8-.8-3.4 1-1 1.8-.6 2.3-.4z"/><path stroke="#fff101" stroke-width=".5" d="M31.2 30.7c-1-.7-2.9-1.1-4.5.7-1.4 1.6-1.4 3.8.7 5.7q3.3 2.7 5.7.1 2-2.4.1-4.7l-1.1 1.3q.9 1.3 0 2.4c-1 1-2.4.6-3.5-.4-1.7-1.5-1.3-2.8-.8-3.4 1-1 1.8-.6 2.3-.4z"/><path fill="#fff101" fill-rule="nonzero" d="M32.2 26.6 31 27.7l5.5 6.1 1.2-1.1z"/><path stroke="#fff101" stroke-width=".5" d="M32.2 26.6 31 27.7l5.5 6.1 1.2-1.1z"/><path fill="#fff101" fill-rule="nonzero" d="m40 23.6-1.3 1 2 2.8c.6.9.2 1.6-.2 1.9s-1 .4-1.5-.4l-2.2-3-1.3.9 2.3 3.2q1.4 1.9 3 .7a2 2 0 0 0 .9-2l.5.8 1.3-.9z"/><path stroke="#fff101" stroke-width=".5" d="m40 23.6-1.3 1 2 2.8c.6.9.2 1.6-.2 1.9s-1 .4-1.5-.4l-2.2-3-1.3.9 2.3 3.2q1.4 1.9 3 .7a2 2 0 0 0 .9-2l.5.8 1.3-.9z"/><path fill="#fff101" fill-rule="nonzero" d="m42.5 19.8-1.4.8 3.7 7.3 1.4-.7-.3-.7q1 .5 2 0c1.6-.8 1.5-2.6.8-4Q47 19.6 45 20.7a2 2 0 0 0-1.1 1.6zm4.8 3.5c.3.6.6 1.7-.4 2.2s-1.6-.1-2-1c-.5-.8-.7-1.8.3-2.3q1.4-.4 2 1"/><path stroke="#fff101" stroke-width=".5" d="m42.5 19.8-1.4.8 3.7 7.3 1.4-.7-.3-.7q1 .5 2 0c1.6-.8 1.5-2.6.8-4Q47 19.6 45 20.7a2 2 0 0 0-1.1 1.6zm4.8 3.5c.3.6.6 1.7-.4 2.2s-1.6-.1-2-1c-.5-.8-.7-1.8.3-2.3q1.4-.4 2 1Z"/><path fill="#fff101" fill-rule="nonzero" d="m52.3 20.2-3 1.2.6 1.3 2.9-1.2z"/><path stroke="#fff101" stroke-width=".5" d="m52.3 20.2-3 1.2.6 1.3 2.9-1.2z"/><path fill="#fff101" fill-rule="nonzero" d="M60.5 16.4c-.3-1.2-1.7-2.6-4-2q-3.5.7-2.8 5c.6 2.8 2.5 3.9 4.6 3.4q3-1 2.8-3.8l-1.6.4q0 1.5-1.5 2c-1.4.3-2.3-.9-2.6-2.3-.5-2.3.6-3.1 1.4-3.3 1.3-.3 1.8.5 2 1z"/><path stroke="#fff101" stroke-width=".5" d="M60.5 16.4c-.3-1.2-1.7-2.6-4-2q-3.5.7-2.8 5c.6 2.8 2.5 3.9 4.6 3.4q3-1 2.8-3.8l-1.6.4q0 1.5-1.5 2c-1.4.3-2.3-.9-2.6-2.3-.5-2.3.6-3.1 1.4-3.3 1.3-.3 1.8.5 2 1z"/><path fill="#fff101" fill-rule="nonzero" d="m62.9 21.7 1.6-.2-.5-3.2c-.1-.6 0-1.4 1.2-1.6h.5l-.3-1.7h-.3c-1 .2-1.2.9-1.5 1.5l-.2-1-1.5.2z"/><path stroke="#fff101" stroke-width=".5" d="m62.9 21.7 1.6-.2-.5-3.2c-.1-.6 0-1.4 1.2-1.6h.5l-.3-1.7h-.3c-1 .2-1.2.9-1.5 1.5l-.2-1-1.5.2z"/><path fill="#fff101" fill-rule="nonzero" d="M70.6 18.9q-.2 1.1-1.4 1.3-.6 0-.7-.7 0-1 1-1 1-.2 1-.4zm1.4-2.4c0-1.5-1.6-1.7-2.5-1.6-1.2 0-2.5.4-2.6 2.2h1.6q-.2-.7 1-1c.3 0 1 0 1 .7q-.1.5-.5.5l-1.5.3q-1.6.3-1.6 2c0 1.3 1 1.8 2 1.7 1 0 1.5-.6 1.8-1q0 .5.2.7h1.7v-.3q-.3.1-.4-1z"/><path stroke="#fff101" stroke-width=".5" d="M70.6 18.9q-.2 1.1-1.4 1.3-.6 0-.7-.7 0-1 1-1 1-.2 1-.4zm1.4-2.4c0-1.5-1.6-1.7-2.5-1.6-1.2 0-2.5.4-2.6 2.2h1.6q-.2-.7 1-1c.3 0 1 0 1 .7q-.1.5-.5.5l-1.5.3q-1.6.3-1.6 2c0 1.3 1 1.8 2 1.7 1 0 1.5-.6 1.8-1q0 .5.2.7h1.7v-.3q-.3.1-.4-1z"/><path fill="#fff101" fill-rule="nonzero" d="M79.9 17.5q0-2-1.9-2.3a2 2 0 0 0-2 .9l.2-1-1.6-.1-.7 6 1.6.2.4-3.4q.3-1.5 1.4-1.3c1 .1 1 .9 1 1.3l-.5 3.7 1.5.2z"/><path stroke="#fff101" stroke-width=".5" d="M79.9 17.5q0-2-1.9-2.3a2 2 0 0 0-2 .9l.2-1-1.6-.1-.7 6 1.6.2.4-3.4q.3-1.5 1.4-1.3c1 .1 1 .9 1 1.3l-.5 3.7 1.5.2z"/><path fill="#fff101" fill-rule="nonzero" d="M86.8 19c.3-1.6-1-2.3-2.2-2.6-1.8-.4-2.7.6-2.9 1.4-.5 2.2 3.3 2.4 3 3.4q0 .4-1 .3-1.5-.3-1.1-1.1L81 20c-.4 1.5 1 2.4 2.3 2.7 1 .2 2.7.3 3-1.4.6-2.2-3.2-2.4-3-3.3q-.1-.6 1-.4c1 .2 1 .7 1 1z"/><path stroke="#fff101" stroke-width=".5" d="M86.8 19c.3-1.6-1-2.3-2.2-2.6-1.8-.4-2.7.6-2.9 1.4-.5 2.2 3.3 2.4 3 3.4q0 .4-1 .3-1.5-.3-1.1-1.1L81 20c-.4 1.5 1 2.4 2.3 2.7 1 .2 2.7.3 3-1.4.6-2.2-3.2-2.4-3-3.3q-.1-.6 1-.4c1 .2 1 .7 1 1z"/><path fill="#fff101" fill-rule="nonzero" d="m91 20.8-3-1.1-.5 1.4 3 1.1z"/><path stroke="#fff101" stroke-width=".5" d="m91 20.8-3-1.1-.5 1.4 3 1.1z"/><path fill="#fff101" fill-rule="nonzero" d="M97 23c.5-1.6-.7-2.5-1.7-3-1.8-.7-2.7 0-3.1.9-1 2 2.8 2.9 2.4 3.8q0 .5-1.2.2-1.2-.6-.8-1.4L91 23c-.6 1.5.5 2.5 1.8 3 .9.5 2.6.9 3.3-.7.9-2-2.9-3-2.5-3.9.1-.2.4-.5 1.2-.1q.9.6.6 1.1z"/><path stroke="#fff101" stroke-width=".5" d="M97 23c.5-1.6-.7-2.5-1.7-3-1.8-.7-2.7 0-3.1.9-1 2 2.8 2.9 2.4 3.8q0 .5-1.2.2-1.2-.6-.8-1.4L91 23c-.6 1.5.5 2.5 1.8 3 .9.5 2.6.9 3.3-.7.9-2-2.9-3-2.5-3.9.1-.2.4-.5 1.2-.1q.9.6.6 1.1z"/><path fill="#fff101" fill-rule="nonzero" d="m104.3 25.2-1.4-.8-1.8 3c-.6 1-1.3.8-1.8.5-.4-.2-.8-.7-.3-1.5l2-3.2-1.4-.8-2 3.4q-1.2 2 .5 3a2 2 0 0 0 2.1 0l-.4.8 1.3.8z"/><path stroke="#fff101" stroke-width=".5" d="m104.3 25.2-1.4-.8-1.8 3c-.6 1-1.3.8-1.8.5-.4-.2-.8-.7-.3-1.5l2-3.2-1.4-.8-2 3.4q-1.2 2 .5 3a2 2 0 0 0 2.1 0l-.4.8 1.3.8z"/><path fill="#fff101" fill-rule="nonzero" d="m102.4 31.4 1.2 1 2-2.5c.4-.6 1-1 2-.3l.4.3 1-1.3-.3-.2c-.7-.6-1.4-.3-2 0l.6-.9-1.2-1z"/><path stroke="#fff101" stroke-width=".5" d="m102.4 31.4 1.2 1 2-2.5c.4-.6 1-1 2-.3l.4.3 1-1.3-.3-.2c-.7-.6-1.4-.3-2 0l.6-.9-1.2-1z"/><path fill="#fff101" fill-rule="nonzero" d="m110.3 32.9-2.4-2.1-1 1.1 2.4 2.2z"/><path stroke="#fff101" stroke-width=".5" d="m110.3 32.9-2.4-2.1-1 1.1 2.4 2.2z"/><path fill="#fff101" fill-rule="nonzero" d="M110.1 34.7c-.7.7-1.6 2.2.4 4.5.4.5 2.3 2.2 4.1.6 1.1-1 .8-2 .2-3l-1-2c-.1-.2-.4-.7.1-1.1s1.3-.1 1.7.4c1 1 .4 1.8.2 2l1.1 1.3c.7-.7 1.5-2.3-.2-4.2-1.8-2-3.3-1.2-4-.6-1.3 1.2-.7 2.3 0 3.5l.4.8q.8 1.2.3 1.8c-.7.6-1.4 0-2-.6-1-1-.5-1.8-.2-2.1z"/><path stroke="#fff101" stroke-width=".5" d="M110.1 34.7c-.7.7-1.6 2.2.4 4.5.4.5 2.3 2.2 4.1.6 1.1-1 .8-2 .2-3l-1-2c-.1-.2-.4-.7.1-1.1s1.3-.1 1.7.4c1 1 .4 1.8.2 2l1.1 1.3c.7-.7 1.5-2.3-.2-4.2-1.8-2-3.3-1.2-4-.6-1.3 1.2-.7 2.3 0 3.5l.4.8q.8 1.2.3 1.8c-.7.6-1.4 0-2-.6-1-1-.5-1.8-.2-2.1z"/><path fill="#fff101" fill-rule="nonzero" d="m121.2 39-.9-1.3-1.2.9.9 1.3zm-2.7 0-5 3.5 1 1.3 5-3.5z"/><path stroke="#fff101" stroke-width=".5" d="m121.2 39-.9-1.3-1.2.9.9 1.3zm-2.7 0-5 3.5 1 1.3 5-3.5z"/><path fill="#fff101" fill-rule="nonzero" d="M119 44.2q1.2-.5 1.7.4.6.7-.4 1.7zm-.3 3q-.9.1-1.1-.5c-.7-1.1.1-1.7.5-2l2.1 3.6.3-.2c2.4-1.4 2-3.1 1.4-4.2-1.4-2.2-3.5-1.3-4.1-.9-2.2 1.3-2.2 2.9-1.3 4.3q.7 1.7 3 1.3z"/><path stroke="#fff101" stroke-width=".5" d="M119 44.2q1.2-.5 1.7.4.6.7-.4 1.7zm-.3 3q-.9.1-1.1-.5c-.7-1.1.1-1.7.5-2l2.1 3.6.3-.2c2.4-1.4 2-3.1 1.4-4.2-1.4-2.2-3.5-1.3-4.1-.9-2.2 1.3-2.2 2.9-1.3 4.3q.7 1.7 3 1.3z"/><path fill="#fff101" fill-rule="nonzero" d="m118.5 50.6.7 1.5 2.9-1.3c.6-.3 1.4-.4 1.9.7l.1.5 1.5-.7V51q-.8-1.2-1.9-1l1-.5-.6-1.4z"/><path stroke="#fff101" stroke-width=".5" d="m118.5 50.6.7 1.5 2.9-1.3c.6-.3 1.4-.4 1.9.7l.1.5 1.5-.7V51q-.8-1.2-1.9-1l1-.5-.6-1.4z"/><path fill="#fff101" fill-rule="nonzero" d="m120.4 54.7.5 1.5 3-1c.6-.3 1.4-.3 1.8.9l.1.4 1.6-.5-.1-.3c-.3-1-1-1-1.7-1.2l1-.4-.5-1.4z"/><path stroke="#fff101" stroke-width=".5" d="m120.4 54.7.5 1.5 3-1c.6-.3 1.4-.3 1.8.9l.1.4 1.6-.5-.1-.3c-.3-1-1-1-1.7-1.2l1-.4-.5-1.4z"/><path fill="#fff101" fill-rule="nonzero" d="M125.7 59.2q1.2-.1 1.5 1 .3.8-1 1.5zm-1.3 2.8q-.7-.1-.9-.8c-.3-1.3.7-1.6 1.2-1.8l.9 4h.3c2.7-.6 2.9-2.3 2.6-3.5-.6-2.6-3-2.3-3.7-2.2q-3.4 1-2.5 3.7c.2 1 1 2.1 2.5 2.2z"/><path stroke="#fff101" stroke-width=".5" d="M125.7 59.2q1.2-.1 1.5 1 .3.8-1 1.5zm-1.3 2.8q-.7-.1-.9-.8c-.3-1.3.7-1.6 1.2-1.8l.9 4h.3c2.7-.6 2.9-2.3 2.6-3.5-.6-2.6-3-2.3-3.7-2.2q-3.4 1-2.5 3.7c.2 1 1 2.1 2.5 2.2z"/><path fill="#fffffe" fill-rule="nonzero" d="m46.5 38 .2.6q.3.3 1 .3l.7-.1q.3-.2.2-.4t-.2-.4l-1.5-.4-1.3-.6q-.3-.4-.3-1 0-.8.5-1.3t1.7-.5a3 3 0 0 1 1.7.4q.6.4.7 1.4h-1.4l-.1-.4q-.3-.3-.9-.3l-.6.1-.2.4q0 .2.2.3l1.5.4q.9.1 1.3.6t.4 1q0 .8-.6 1.4t-1.9.5-1.9-.6-.6-1.4zM51.2 39.8h1.4v-5.5h-1.4zm0-6.1h1.4v-1.4h-1.4zM58.4 34.6q.6.4.6 1.5v3.7h-1.5v-3.3l-.1-.7q-.2-.4-.8-.4t-1 .6l-.1.8v3H54v-5.5h1.4v.8l.5-.6q.5-.3 1.1-.3.9 0 1.4.4M63.6 36.3l-.2-.6q-.3-.3-.8-.3-.7 0-1 .7l-.1 1 .1 1q.3.7 1 .7.5 0 .7-.3l.2-.7H65q0 .7-.5 1.2-.6 1-2 1-1.2 0-1.9-.8t-.6-2q0-1.5.7-2.2.6-.9 1.9-.8 1 0 1.7.4t.7 1.7zM67.4 35.7q-.3.3-.3.8h2.4q0-.6-.3-.8l-.9-.3q-.5 0-.9.3m2.2-1.3q.6.3 1 .9l.4 1v1.2h-4q0 .8.6 1.1.3.3.8.2t.8-.2l.3-.4h1.4q0 .5-.5 1-.8.8-2 .8a3 3 0 0 1-2-.7q-.8-.6-.8-2.2 0-1.4.7-2.2.8-.7 2-.7.7 0 1.3.2M74.6 34.8v-1h1l.7-.5.3-.5v-.3h1.2v7.3h-1.4v-5zM82.3 36q.6-.2.5-1 0-.6-.3-1l-.8-.3-.6.2q-.4.3-.4 1t.3 1q.2.3.8.3zM80 33.3q.7-.7 1.8-.7 1.5 0 2.3 1.4.3.9.3 2.2t-.3 2.2q-.7 1.8-2.4 1.7-.8 0-1.5-.5t-.7-1.4h1.4q0 .3.3.5t.6.2q.7 0 1-.7l.2-1.3-.4.4-1 .2q-.9 0-1.6-.6t-.7-1.7.7-2M86.7 38.2q.1.6.8.6.6 0 .8-.6t.2-2l-.2-2q-.2-.5-.8-.5t-.8.6q-.3.5-.3 2 0 1.2.3 1.9m2.8-4.8q.5 1 .5 2.8 0 1.9-.5 2.8-.6 1-2 1-1.5 0-2-1t-.5-2.8q0-1.8.5-2.8t2-1 2 1M92.5 38.5q.3.3.8.3t.7-.3.3-1-.3-1l-.8-.3-.6.2q-.5.4-.5 1.1 0 .6.4 1m1.7-4.2q0 0-.2-.3-.2-.4-.7-.4-.7 0-1 .8l-.2 1.3.6-.5.8-.1a2 2 0 0 1 1.6.6q.6.7.6 1.7t-.6 1.8-1.9.8q-1.4 0-2-1.2-.5-.9-.5-2.3v-1.3q.2-1 .6-1.6.3-.5.8-.8t1.2-.4q1 0 1.6.6t.7 1.3z"/></g></svg>
