<svg width="192" height="192" viewBox="17 7 82 82" fill="none" xmlns="http://www.w3.org/2000/svg">
<path d="M20.6876 75.1542C20.9979 75.1555 21.3037 75.0809 21.578 74.937C21.8523 74.7931 22.0868 74.5843 22.2606 74.3291L22.8782 74.7672C22.5502 75.2304 22.0822 75.5778 21.5419 75.759C21.0017 75.9402 20.4174 75.9457 19.8738 75.7749C19.3302 75.604 18.8555 75.2657 18.5186 74.8088C18.1816 74.352 18 73.8005 18 73.2342C18 72.6679 18.1816 72.1164 18.5186 71.6596C18.8555 71.2027 19.3302 70.8643 19.8738 70.6935C20.4174 70.5227 21.0017 70.5282 21.5419 70.7094C22.0822 70.8906 22.5502 71.238 22.8782 71.7011L22.2606 72.1393C22.0696 71.8733 21.813 71.6605 21.5154 71.5213C21.2178 71.382 20.8892 71.321 20.5611 71.3441C20.2329 71.3672 19.9162 71.4736 19.6414 71.6531C19.3665 71.8326 19.1427 72.0792 18.9914 72.3693C18.84 72.6593 18.7663 72.9832 18.7771 73.3097C18.788 73.6362 18.8831 73.9545 19.0533 74.234C19.2236 74.5135 19.4633 74.7449 19.7495 74.9061C20.0356 75.0672 20.3587 75.1526 20.6876 75.1542Z" fill="white"/>
<path d="M26.8639 75.79L25.2325 73.6873H25.0922V75.79H24.3203V70.6793H25.9964C26.2524 70.6623 26.5088 70.7065 26.7441 70.8082C26.9794 70.9099 27.1867 71.0661 27.3487 71.2637C27.554 71.5269 27.6652 71.8504 27.665 72.1833C27.6656 72.3771 27.6277 72.5691 27.5533 72.7482C27.4789 72.9274 27.3696 73.0901 27.2317 73.2272C27.0938 73.3642 26.9299 73.4728 26.7495 73.5467C26.5692 73.6206 26.3759 73.6584 26.1808 73.6578L27.8345 75.79H26.8639ZM26.7167 71.7014C26.6273 71.6018 26.5154 71.5247 26.3902 71.4765C26.2649 71.4283 26.13 71.4104 25.9964 71.4242H25.0922V72.943H25.9964C26.13 72.9566 26.265 72.9385 26.3902 72.8903C26.5154 72.842 26.6273 72.7649 26.7167 72.6653C26.831 72.5304 26.8936 72.3597 26.8936 72.1833C26.8936 72.007 26.831 71.8363 26.7167 71.7014Z" fill="white"/>
<path d="M28.7168 75.7891L31.4145 70.5322L34.1123 75.7891H33.2378L32.7233 74.7892H30.0989L29.5918 75.7891H28.7168ZM30.4737 74.0443H32.348L31.4145 72.1829L30.4737 74.0443Z" fill="white"/>
<path d="M36.1044 72.5118V75.7896H35.332V70.5332L38.4571 73.9572V70.6794H39.2284V75.9358L36.1044 72.5118Z" fill="white"/>
<path d="M41.5164 74.6063C41.5663 74.765 41.666 74.9038 41.8009 75.0023C41.9358 75.1008 42.099 75.1538 42.2664 75.1537C42.4161 75.153 42.5621 75.108 42.6859 75.0246C42.8097 74.9412 42.9058 74.823 42.9617 74.6852C43.0177 74.5474 43.0311 74.3962 43.0003 74.2508C42.9694 74.1054 42.8957 73.9724 42.7885 73.8688C42.3765 73.504 41.7221 73.5768 41.2076 73.0368C40.9452 72.7606 40.8005 72.3944 40.8036 72.0147C40.8061 71.6309 40.9613 71.2636 41.2353 70.9929C41.5093 70.7221 41.8799 70.5699 42.2664 70.5693C42.59 70.5718 42.9039 70.6795 43.16 70.8759C43.4162 71.0723 43.6004 71.3466 43.6847 71.6568L42.957 71.8321C42.9122 71.6841 42.8211 71.5542 42.697 71.461C42.5728 71.3679 42.422 71.3165 42.2664 71.3142C42.1753 71.3128 42.0848 71.3295 42.0004 71.3635C41.9159 71.3975 41.8391 71.4479 41.7746 71.5118C41.7102 71.5758 41.6593 71.652 41.6249 71.7358C41.5906 71.8197 41.5736 71.9095 41.5749 72C41.5708 72.1804 41.6368 72.3555 41.7593 72.4888C42.1559 72.927 42.8469 72.8103 43.3833 73.3578C43.5165 73.4938 43.6209 73.655 43.6904 73.8318C43.7599 74.0086 43.793 74.1975 43.7878 74.3872C43.7912 74.5865 43.7541 74.7845 43.6788 74.9693C43.6035 75.1542 43.4916 75.3221 43.3497 75.4631C43.2077 75.6041 43.0387 75.7153 42.8526 75.7901C42.6665 75.8649 42.4672 75.9018 42.2664 75.8986C41.9281 75.8982 41.5992 75.7871 41.3308 75.5826C41.0623 75.378 40.8692 75.0913 40.7812 74.7667L41.5164 74.6063Z" fill="white"/>
<path d="M47.4043 75.7896L49.0729 70.5332L50.5874 74.0375L52.1013 70.5332L53.7699 75.7896H52.9619L51.9913 72.6944L50.5874 75.9358L49.1835 72.6944L48.2128 75.7896H47.4043Z" fill="white"/>
<path d="M57.3001 70.5693C57.8308 70.5692 58.3497 70.7255 58.791 71.0182C59.2324 71.311 59.5764 71.7272 59.7796 72.2142C59.9827 72.7011 60.0359 73.237 59.9324 73.754C59.8289 74.2709 59.5733 74.7458 59.198 75.1185C58.8227 75.4913 58.3445 75.7451 57.8239 75.8479C57.3034 75.9507 56.7638 75.8979 56.2735 75.6961C55.7831 75.4944 55.364 75.1527 55.0692 74.7144C54.7744 74.2761 54.6171 73.7608 54.6172 73.2337C54.6187 72.5275 54.9018 71.8507 55.4046 71.3514C55.9075 70.852 56.589 70.5708 57.3001 70.5693ZM57.3001 71.3142C56.9167 71.3099 56.5408 71.4188 56.2199 71.6272C55.8991 71.8356 55.6478 72.134 55.4982 72.4844C55.3485 72.8349 55.3071 73.2217 55.3792 73.5956C55.4514 73.9695 55.6338 74.3137 55.9034 74.5844C56.173 74.8551 56.5175 75.0401 56.8932 75.1159C57.2688 75.1917 57.6587 75.1549 58.0133 75.0101C58.3679 74.8653 58.6711 74.6192 58.8845 74.3029C59.0978 73.9866 59.2117 73.6144 59.2116 73.2337C59.2155 72.9823 59.1689 72.7327 59.0745 72.4994C58.9801 72.2662 58.8398 72.054 58.6618 71.8752C58.4838 71.6965 58.2717 71.5548 58.0379 71.4584C57.804 71.3621 57.5532 71.3131 57.3001 71.3142Z" fill="white"/>
<path d="M62.307 72.5118V75.7896H61.5352V70.5332L64.6597 73.9572V70.6794H65.4311V75.9358L62.307 72.5118Z" fill="white"/>
<path d="M68.2411 75.7898V71.4245H66.7559V70.6797H70.4981V71.4245H69.0129V75.7898H68.2411Z" fill="white"/>
<path d="M70.5488 75.7891L73.2466 70.5322L75.9443 75.7891H75.0699L74.5553 74.7892H71.9309L71.4238 75.7891H70.5488ZM72.3057 74.0443H74.18L73.2466 72.1829L72.3057 74.0443Z" fill="white"/>
<path d="M77.9305 72.5118V75.7896H77.1582V70.5332L80.2833 73.9572V70.6794H81.0546V75.9358L77.9305 72.5118Z" fill="white"/>
<path d="M82.2754 75.7891L84.9731 70.5322L87.6714 75.7891H86.7964L86.2819 74.7892H83.6575L83.1503 75.7891H82.2754ZM84.0322 74.0443H85.9066L84.9731 72.1829L84.0322 74.0443Z" fill="white"/>
<path d="M95.9047 70.6318H90.7729H90.7109V70.6934V75.7897V75.8513H90.7729H95.9047H95.9666V75.7897V70.6934V70.6318H95.9047Z" fill="#C32030"/>
<path d="M95.9047 70.6318H90.7729H90.7109V70.6934V75.7897V75.8513H90.7729H95.9047H95.9666V75.7897V70.6934V70.6318H95.9047Z" stroke="white" stroke-width="0.25" stroke-miterlimit="10"/>
<path d="M91.9825 68.893L87.571 68.7197L87.6444 68.7448L84.1242 67.6046L80.6224 65.5266L76.4608 62.3202L76.2526 62.1592L76.1262 62.233L72.8628 63.7567L68.8524 64.7925L67.1892 63.6819L64.37 64.5917L64.2803 64.6202L64.2793 64.6212L62.4069 65.5679L61.3149 65.5566L56.5762 67.9433L51.3731 68.4248L18.2109 69.1165L51.4891 69.5015L58.6374 69.084L58.7485 69.0564L60.314 68.5538L62.2785 66.7549L63.0648 66.7544L63.2427 66.7539L63.3751 66.6392L64.7532 65.4488L67.1674 64.6576L69.306 65.4458L73.3704 64.8137L76.1941 63.1093L80.2248 66.0706L80.2452 66.0868L80.26 66.0947L83.8451 68.0851L87.4342 69.1061L87.4734 69.1278L87.5085 69.1322L91.9478 69.1239L96.5511 69.1165L91.9825 68.893Z" fill="white"/>
<path d="M42.1169 42.515L45.7173 50.8277L49.3183 42.515L51.8063 50.4535H53.88L49.6013 36.9746L45.7173 45.9597L41.8348 36.9746L37.5547 50.4535H39.6288L42.1169 42.515Z" fill="white"/>
<path d="M55.3699 33.417L55.5018 33.1733C52.75 31.1332 50.7512 28.2876 50.7512 24.7676C50.7512 21.1551 53.2398 17.8414 57.2924 17.8414C61.3459 17.8414 63.834 21.1551 63.834 24.7676C63.834 28.2876 61.8357 31.1332 59.0829 33.1733L59.2148 33.417H65.6429L67.0388 30.7772H66.3597L65.4743 32.0873H62.1753C64.4556 30.4784 66.3597 27.9514 66.3597 24.843C66.3597 19.882 61.854 17 57.2924 17C52.7307 17 48.225 19.882 48.225 24.843C48.225 27.9514 50.1291 30.4784 52.4105 32.0873H49.1114L48.225 30.7772H47.5469L48.9418 33.417H55.3699Z" fill="white"/>
<path d="M30.2044 50.7343C31.5653 50.7345 32.8958 50.3338 34.0274 49.5831C35.1591 48.8323 36.0412 47.7651 36.5621 46.5165C37.083 45.2679 37.2194 43.8939 36.954 42.5683C36.6886 41.2427 36.0333 40.025 35.0711 39.0692C34.1088 38.1134 32.8828 37.4625 31.548 37.1988C30.2132 36.935 28.8296 37.0703 27.5723 37.5874C26.3149 38.1046 25.2402 38.9804 24.484 40.1041C23.7279 41.2279 23.3243 42.5491 23.3242 43.9006C23.3279 45.7117 24.0539 47.4476 25.3434 48.7284C26.6329 50.0091 28.3807 50.7304 30.2044 50.7343ZM30.2044 38.9766C31.1875 38.9654 32.1517 39.2446 32.9746 39.7789C33.7975 40.3132 34.4419 41.0783 34.8259 41.9771C35.2099 42.8759 35.3163 43.8678 35.1314 44.8267C34.9465 45.7856 34.4787 46.6684 33.7875 47.3627C33.0964 48.057 32.2129 48.5316 31.2495 48.7262C30.2861 48.9208 29.2862 48.8266 28.3768 48.4556C27.4674 48.0845 26.6897 47.4534 26.1423 46.6423C25.5949 45.8313 25.3027 44.877 25.3027 43.9006C25.2924 43.2559 25.4118 42.6156 25.6538 42.0173C25.8958 41.419 26.2555 40.8746 26.712 40.416C27.1685 39.9575 27.7125 39.594 28.3121 39.3468C28.9118 39.0996 29.5551 38.9738 30.2044 38.9766Z" fill="white"/>
<path d="M82.7416 47.7568H89.7546L91.1293 50.4536H93.3546L86.2474 36.5996L79.1406 50.4536H81.3645L82.7416 47.7568ZM86.2474 40.924L88.7736 45.8476H83.7211L86.2474 40.924Z" fill="white"/>
<path d="M79.3098 43.4128H72.5615V45.3225H77.1797C76.8617 46.3999 76.1847 47.3381 75.2594 47.9833C74.3342 48.6285 73.2157 48.9425 72.0873 48.8736C70.9589 48.8048 69.8875 48.3574 69.0487 47.6046C68.2099 46.8518 67.6535 45.8384 67.4707 44.7304C67.2879 43.6224 67.4895 42.4856 68.0426 41.5064C68.5956 40.5271 69.4671 39.7635 70.5144 39.3406C71.5617 38.9178 72.7226 38.8608 73.8068 39.179C74.891 39.4972 75.8341 40.1718 76.4817 41.0921L78.0651 39.9682C77.1171 38.6397 75.7219 37.6918 74.1316 37.2957C72.5413 36.8997 70.8608 37.0816 69.3937 37.8086C67.9267 38.5356 66.7699 39.7598 66.1324 41.2599C65.4948 42.76 65.4186 44.4371 65.9175 45.9881C66.4164 47.5391 67.4575 48.8618 68.8526 49.7171C70.2478 50.5723 71.9049 50.9038 73.5247 50.6516C75.1445 50.3994 76.62 49.5801 77.6846 48.3419C78.7492 47.1036 79.3327 45.528 79.3297 43.8997C79.3333 43.7372 79.3267 43.5746 79.3098 43.4128Z" fill="white"/>
<path d="M63.5881 39.2573V37.3486H55.5762V50.4539H63.5881V48.5427H57.5561V44.8376H63.3987V42.927H57.5561V39.2573H63.5881Z" fill="white"/>
<path d="M26.2721 62.7907L22.4466 53.9375L18.2305 67.217H20.2734L22.7252 59.3962L26.2721 67.5857L29.8191 59.3962L32.2709 67.217H34.3138L30.0982 53.9375L26.2721 62.7907Z" fill="white"/>
<path d="M35.1055 67.217H37.3149L38.5969 64.6905H45.2272L46.5275 67.217H48.7374L41.9212 53.9375L35.1055 67.217ZM39.5437 62.8094L41.9212 58.1054L44.2804 62.8094H39.5437Z" fill="white"/>
<path d="M51.5288 58.88C51.2203 58.5422 51.054 58.0998 51.0643 57.6438C51.061 57.4152 51.1039 57.1882 51.1905 56.9763C51.2771 56.7645 51.4056 56.572 51.5685 56.4104C51.7313 56.2487 51.9252 56.1212 52.1386 56.0353C52.352 55.9494 52.5805 55.907 52.8107 55.9104C53.2041 55.9162 53.5853 56.0462 53.8991 56.2817C54.213 56.5171 54.4431 56.8458 54.5562 57.2199L56.3949 56.7774C56.1816 55.9935 55.7158 55.3005 55.0686 54.8042C54.4214 54.308 53.6284 54.0358 52.8107 54.0293C51.8341 54.0306 50.8976 54.4151 50.2052 55.0992C49.5129 55.7833 49.1209 56.7114 49.1146 57.6812C49.1066 58.6405 49.4728 59.5657 50.1363 60.2629C51.4356 61.6281 53.0888 61.4439 54.1284 62.366C54.3992 62.6278 54.5855 62.9636 54.6635 63.3308C54.7415 63.698 54.7076 64.08 54.5663 64.4281C54.4251 64.7761 54.1826 65.0745 53.87 65.2854C53.5574 65.4962 53.1886 65.6098 52.8107 65.6118C52.3877 65.612 51.9756 65.4779 51.6347 65.2292C51.2938 64.9804 51.0418 64.6299 50.9156 64.2289L49.0586 64.6346C49.2807 65.4544 49.7686 66.1787 50.4468 66.6954C51.1251 67.212 51.9559 67.4924 52.8107 67.4929C53.3179 67.5013 53.8216 67.4082 54.2918 67.2193C54.762 67.0304 55.1891 66.7494 55.5478 66.3933C55.9065 66.0371 56.1893 65.6129 56.3796 65.1459C56.5698 64.6789 56.6635 64.1787 56.6551 63.6751C56.6683 63.1959 56.5847 62.719 56.4092 62.2725C56.2337 61.8259 55.9699 61.4188 55.6334 61.0752C54.2776 59.6913 52.5322 59.9872 51.5288 58.88Z" fill="white"/>
<path d="M57.9551 56.1877H61.7072V66.8162L62.0979 66.4765L63.4021 65.643L63.6574 65.548V56.1877H67.4086V54.3066H57.9551V56.1877Z" fill="white"/>
<path d="M69.0781 65.0769L69.3518 65.1797L71.0283 64.9292V61.6844H76.7857V59.8033H71.0283V56.1877H76.9716V54.3066H69.0781V65.0769Z" fill="white"/>
<path d="M87.9287 58.1053C87.9285 57.2643 87.6478 56.447 87.1305 55.7811C86.4241 54.8772 85.3286 54.3057 83.713 54.3057H79.4785V65.2797L80.4288 65.995L81.4287 66.5695V61.9049H81.7812L85.9046 67.2174H88.356L84.177 61.8311C86.2764 61.7208 87.9287 60.2631 87.9287 58.1053ZM81.4287 60.0238V56.1868H83.713C84.0507 56.1524 84.3917 56.1981 84.7082 56.32C85.0246 56.442 85.3074 56.6367 85.5333 56.8883C85.8209 57.2296 85.9785 57.6605 85.9785 58.1055C85.9785 58.5506 85.8209 58.9815 85.5333 59.3228C85.3074 59.5744 85.0246 59.7691 84.7082 59.891C84.3917 60.0128 84.0506 60.0584 83.713 60.0238H81.4287Z" fill="white"/>
<path d="M96.1373 61.0752C94.7815 59.6923 93.0361 59.9872 92.0327 58.88C91.7245 58.5424 91.5585 58.1003 91.5687 57.6448C91.5653 57.4162 91.6081 57.1892 91.6946 56.9772C91.7811 56.7653 91.9096 56.5728 92.0724 56.4111C92.2352 56.2494 92.4291 56.1218 92.6425 56.0359C92.8558 55.95 93.0844 55.9075 93.3147 55.9109C93.708 55.9165 94.0893 56.0466 94.4031 56.282C94.717 56.5175 94.9471 56.8462 95.0601 57.2204L96.8988 56.7774C96.6855 55.9934 96.2197 55.3004 95.5725 54.8042C94.9253 54.3079 94.1323 54.0358 93.3147 54.0293C92.3381 54.0307 91.4016 54.4153 90.7093 55.0994C90.017 55.7834 89.6249 56.7114 89.6185 57.6812C89.6106 58.6408 89.9767 59.5662 90.6402 60.2639C91.94 61.6286 93.5933 61.4444 94.6333 62.3665C94.904 62.6284 95.0901 62.9643 95.168 63.3316C95.2459 63.6988 95.2119 64.0807 95.0705 64.4288C94.9292 64.7768 94.6867 65.0752 94.374 65.286C94.0613 65.4967 93.6926 65.6103 93.3147 65.6123C92.8916 65.6123 92.4797 65.4781 92.1388 65.2293C91.798 64.9804 91.5461 64.6299 91.42 64.2289L89.5625 64.6351C89.7846 65.4549 90.2726 66.1791 90.9508 66.6959C91.629 67.2127 92.4598 67.4931 93.3147 67.4939C93.8218 67.5023 94.3255 67.4092 94.7957 67.2203C95.266 67.0314 95.6931 66.7505 96.0518 66.3943C96.4105 66.0381 96.6933 65.6139 96.8835 65.1469C97.0738 64.68 97.1674 64.1797 97.159 63.6761C97.1724 63.1967 97.0888 62.7196 96.9133 62.2729C96.7378 61.8262 96.474 61.4189 96.1373 61.0752Z" fill="white"/>
<path d="M93.8516 72.7315V71.7119H92.825V72.7315H91.7988V73.7511H92.825V74.7701H93.8516V73.7511H94.8778V72.7315H93.8516Z" fill="white"/>
</svg>
