<svg xmlns="http://www.w3.org/2000/svg" width="100%" height="100%" viewBox="50.69 34.75 122.63 121.75" preserveAspectRatio="xMidYMid meet">
  <g transform="translate(0,192) scale(0.1,-0.1)" fill="#ffffff" stroke="none">
    <path fill-rule="evenodd" d="M835 1557 c-218 -73 -354 -289 -317 -505 22 -128 102 -284 238 -463
91 -118 191 -229 209 -229 20 0 185 184 174 194 -2 2 -23 15 -47 30 -88 55
-77 125 28 182 29 16 53 38 62 58 30 62 67 96 104 96 19 0 43 -6 54 -12 25
-16 33 -6 56 67 38 119 25 259 -33 367 -38 69 -130 153 -210 191 -61 28 -79
32 -173 34 -67 2 -120 -2 -145 -10z M1113 1122 C1113 1204 1046 1271 964 1271 C881 1271 815 1204 815 1122 C815 1039 881 973 964 973 C1046 973 1113 1039 1113 1122 Z"/>
    <path d="M1575 1090 c-9 -17 -33 -41 -55 -55 -22 -14 -40 -32 -40 -40 0 -8 17
-23 39 -34 23 -12 43 -32 50 -50 21 -50 44 -49 76 5 10 18 33 39 51 48 43 20
43 41 0 67 -19 11 -44 36 -55 55 -25 42 -46 43 -66 4z"/>
    <path d="M1251 808 c-36 -65 -34 -63 -98 -99 -29 -16 -53 -36 -53 -44 0 -8 26
-29 58 -46 47 -26 64 -43 88 -88 17 -31 38 -57 46 -59 11 -2 27 17 49 57 28
51 43 65 91 91 32 17 58 37 58 45 0 7 -26 28 -59 46 -48 26 -64 42 -90 90 -18
33 -39 59 -46 59 -8 0 -28 -24 -44 -52z"/>
  </g>
</svg>
