<svg version="1.0" xmlns="http://www.w3.org/2000/svg"
 width="100%" height="100%" viewBox="4112.85 4123.57 13588.93 13655.57"
 preserveAspectRatio="xMidYMid meet">
<metadata>
Created by potrace 1.16, written by Peter Selinger 2001-2019
</metadata>
<g transform="translate(0.000000,21888.000000) scale(7.200000,-7.200000)"
fill="#ffffff" stroke="none">
<path d="M741 2453 c-62 -22 -134 -96 -155 -159 -15 -46 -16 -120 -14 -765 l3
-714 23 -46 c37 -75 87 -125 158 -160 l66 -33 686 -4 c510 -3 702 -1 744 7 82
17 146 64 181 130 25 49 27 63 25 135 l-3 81 -765 -3 c-754 -4 -765 -4 -782
-24 -23 -26 -23 -43 2 -68 20 -20 33 -20 725 -20 681 0 705 -1 705 -19 0 -27
-39 -71 -76 -87 -27 -11 -156 -14 -701 -14 -628 0 -670 2 -708 19 -22 10 -50
29 -62 42 -70 76 -51 207 37 262 l35 22 795 5 795 5 0 620 c0 593 -1 622 -19
659 -23 46 -74 99 -119 123 -30 17 -86 18 -782 20 -662 1 -755 0 -794 -14z
m853 -167 c64 -19 111 -57 146 -119 38 -67 48 -128 26 -162 -30 -46 -92 -27
-101 33 -14 91 -69 144 -150 144 -53 0 -99 -25 -126 -68 -16 -26 -19 -50 -19
-142 l0 -111 230 -3 230 -3 37 -38 38 -37 3 -228 c2 -213 1 -229 -18 -260 -11
-18 -34 -41 -52 -52 -31 -19 -51 -20 -323 -20 -332 0 -341 2 -382 80 -22 41
-23 54 -23 239 0 169 3 202 19 237 18 40 72 84 104 84 12 0 16 21 19 123 3
109 7 128 31 173 60 116 184 168 311 130z"/>
<path d="M1242 1738 c-8 -8 -12 -67 -12 -200 0 -175 1 -188 19 -198 12 -6 116
-10 270 -10 214 0 252 2 265 16 13 13 16 45 16 198 0 128 -4 186 -12 194 -17
17 -529 17 -546 0z m316 -120 c7 -7 12 -39 12 -75 0 -56 -3 -64 -26 -80 -24
-15 -29 -15 -53 -2 -23 13 -26 22 -29 72 -4 73 9 97 51 97 18 0 38 -5 45 -12z"/>
</g>
</svg>
